<?xml version="1.0" standalone="no"?><!DOCTYPE svg PUBLIC "-//W3C//DTD SVG 1.1//EN" "http://www.w3.org/Graphics/SVG/1.1/DTD/svg11.dtd"><svg t="1710225299785" class="icon" viewBox="0 0 1280 1024" version="1.1" xmlns="http://www.w3.org/2000/svg" p-id="6039" xmlns:xlink="http://www.w3.org/1999/xlink" width="250" height="200"><path d="M1017.7792 326.5408c0 19.4176-13.2736 35.1488-29.6704 35.1488H279.4368c-16.3968 0-29.6576-15.7312-29.6576-35.1488v-82.432c0-19.4304 13.2608-35.1488 29.6576-35.1488h708.6592c16.3968 0 29.6704 15.7312 29.6704 35.1488v82.432z" fill="#B3B3B3" p-id="6040"></path><path d="M1017.7792 303.104c0 19.4176-13.2736 35.1488-29.6704 35.1488H279.4368c-16.3968 0-29.6576-15.7312-29.6576-35.1488v-82.432c0-19.4176 13.2608-35.1488 29.6576-35.1488h708.6592c16.3968 0 29.6704 15.7312 29.6704 35.1488v82.432z" fill="#E5E7E6" p-id="6041"></path><path d="M310.7968 229.6576v55.6544l30.5536-27.8272z" fill="#4D4D4D" p-id="6042"></path><path d="M1017.7792 569.664c0 19.4304-13.2736 35.1616-29.6704 35.1616H279.4368c-16.3968 0-29.6576-15.7312-29.6576-35.1616v-82.4192c0-19.4304 13.2608-35.1488 29.6576-35.1488h708.6592c16.3968 0 29.6704 15.7312 29.6704 35.1488v82.4192z" fill="#B3B3B3" p-id="6043"></path><path d="M1017.7792 546.24c0 19.4176-13.2736 35.1488-29.6704 35.1488H279.4368c-16.3968 0-29.6576-15.7312-29.6576-35.1488v-82.432c0-19.4304 13.2608-35.1488 29.6576-35.1488h708.6592c16.3968 0 29.6704 15.7312 29.6704 35.1488v82.432z" fill="#E5E7E6" p-id="6044"></path><path d="M310.7968 472.7936v55.6544l30.5536-27.8272z" fill="#4D4D4D" p-id="6045"></path><path d="M1017.7792 815.7312c0 19.4304-13.2736 35.1616-29.6704 35.1616H279.4368c-16.3968 0-29.6576-15.7312-29.6576-35.1616V733.312c0-19.4304 13.2608-35.1488 29.6576-35.1488h708.6592c16.3968 0 29.6704 15.7312 29.6704 35.1488v82.4192z" fill="#B3B3B3" p-id="6046"></path><path d="M1017.7792 792.2944c0 19.4176-13.2736 35.1488-29.6704 35.1488H279.4368c-16.3968 0-29.6576-15.7312-29.6576-35.1488v-82.432c0-19.4176 13.2608-35.1488 29.6576-35.1488h708.6592c16.3968 0 29.6704 15.7312 29.6704 35.1488v82.432z" fill="#E5E7E6" p-id="6047"></path><path d="M310.7968 718.8608v55.6544l30.5536-27.8272z" fill="#4D4D4D" p-id="6048"></path></svg>