<?xml version="1.0" standalone="no"?><!DOCTYPE svg PUBLIC "-//W3C//DTD SVG 1.1//EN" "http://www.w3.org/Graphics/SVG/1.1/DTD/svg11.dtd"><svg t="1703579355198" class="icon" viewBox="0 0 1024 1024" version="1.1" xmlns="http://www.w3.org/2000/svg" p-id="6038" xmlns:xlink="http://www.w3.org/1999/xlink" width="200" height="200"><path d="M381.007 321.09a321.09 321.09 0 1 0 642.18 0 321.09 321.09 0 1 0-642.18 0z" fill="#FDBF5E" p-id="6039"></path><path d="M141.389 76.678h31.949v31.948h-31.95z m76.677 0h31.95v31.948h-31.95z m76.678 0h31.949v31.948h-31.95zM141.389 156.55h31.949V188.5h-31.95z m76.677 0h31.95V188.5h-31.95z m76.678 0h31.949V188.5h-31.95z m-60.704 865.826A232.487 232.487 0 0 1 0.81 789.147c0-94.251 57.507-178.917 143.77-215.657V343.455c0-9.586 6.39-15.975 15.976-15.975h146.968c9.585 0 15.975 6.39 15.975 15.975v231.633c86.263 35.145 143.771 121.408 143.771 215.657 0 127.798-105.432 231.632-233.23 231.632z m-57.508-662.949V586.27c0 6.39-4.792 12.78-11.182 14.378-79.873 28.755-132.59 103.834-132.59 188.5 0 110.224 91.055 201.28 201.28 201.28s201.28-91.056 201.28-201.28c0-84.666-54.315-161.345-134.188-188.5-6.39-1.598-11.182-7.988-11.182-14.378V359.43H176.532z" fill="#193651" p-id="6040"></path><path d="M339.472 656.557H128.607C88.67 688.506 64.71 736.43 64.71 789.147c0 94.25 75.082 170.928 169.33 170.928s169.331-76.677 169.331-169.33c0.002-54.315-23.96-102.237-63.898-134.188z" fill="#E1E6E9" p-id="6041"></path><path d="M128.607 271.57h210.865v71.885H128.607z" fill="#FFFFFF" p-id="6042"></path><path d="M339.472 359.428H128.607c-9.586 0-15.975-6.39-15.975-15.975v-71.886c0-9.585 6.39-15.975 15.975-15.975h210.865c9.586 0 15.976 6.39 15.976 15.975v71.886c0 7.99-6.39 15.975-15.976 15.975z m-194.89-31.948H323.5v-39.937H144.583v39.937z" fill="#193651" p-id="6043"></path><path d="M210.079 621.414c-19.17 0-35.145 15.976-35.145 35.145h68.692c1.598-19.171-14.378-35.145-33.547-35.145z" fill="#E1E6E9" p-id="6044"></path><path d="M210.079 691.702c19.169 0 35.145-15.976 35.145-35.145h-68.692c-1.598 19.17 14.377 35.145 33.547 35.145z" fill="#FFFFFF" p-id="6045"></path><path d="M200.495 514.384a25.56 25.56 0 1 0 51.118 0 25.56 25.56 0 1 0-51.118 0zM219.664 416.939a25.56 25.56 0 1 0 51.119 0 25.56 25.56 0 1 0-51.119 0z" fill="#E1E6E9" p-id="6046"></path><path d="M702.097 440.9c-154.953 0-273.167-51.118-273.167-119.81s116.614-119.81 273.167-119.81c154.955 0 273.167 51.118 273.167 119.81S858.65 440.9 702.097 440.9z m0-207.67c-142.174 0-241.216 46.327-241.216 87.862s99.042 87.861 241.216 87.861 241.216-46.327 241.216-87.861-99.04-87.861-241.216-87.861z" fill="#193651" p-id="6047"></path><path d="M598.262 381.794c-78.275-134.188-91.055-261.984-31.949-295.53 76.678-44.73 188.5 87.86 239.62 175.72 78.276 134.187 91.056 261.983 31.95 295.53-75.082 44.73-186.904-86.263-239.62-175.72zM582.29 113.42c-36.741 20.768-27.157 129.394 44.728 252.4 68.692 119.81 159.747 185.306 196.488 164.54 36.74-20.768 27.157-129.395-44.729-252.4C710.085 158.148 619.03 92.652 582.29 113.42z" fill="#193651" p-id="6048"></path><path d="M566.313 557.514c-59.106-33.547-44.728-161.345 31.95-295.53 59.105-100.641 167.734-217.255 239.62-175.72 59.106 33.546 44.728 161.344-31.95 295.53-57.51 100.64-167.734 217.255-239.62 175.72z m60.704-279.555c-70.287 123.004-79.873 231.633-44.728 252.4 36.74 20.767 127.798-44.728 196.487-164.539 70.288-123.004 79.874-231.632 44.729-252.4-36.74-20.767-126.2 43.131-196.488 164.54z" fill="#193651" p-id="6049"></path><path d="M665.357 321.09a36.74 36.74 0 1 0 73.48 0 36.74 36.74 0 1 0-73.48 0z" fill="#FFFFFF" p-id="6050"></path><path d="M702.097 375.404c-28.755 0-52.716-23.961-52.716-52.716 0-28.755 23.96-52.717 52.716-52.717 28.755 0 52.716 23.962 52.716 52.717 1.598 28.755-22.363 52.716-52.716 52.716z m0-75.082c-11.182 0-20.767 9.586-20.767 20.768 0 11.181 9.585 20.767 20.767 20.767 11.182 0 20.767-9.586 20.767-20.767 1.598-11.182-7.985-20.768-20.767-20.768z m305.116 723.653H857.052c-63.898 0-115.018-51.118-115.018-115.018s51.118-115.018 115.018-115.018h150.161c9.586 0 15.976 6.39 15.976 15.975 0 9.586-6.39 15.976-15.976 15.976H857.052c-46.327 0-83.067 36.74-83.067 83.067s36.74 83.067 83.067 83.067h150.161c9.586 0 15.976 6.39 15.976 15.976s-7.988 15.975-15.976 15.975z" fill="#193651" p-id="6051"></path><path d="M833.09 1020.78c-9.585 0-15.975-6.39-15.975-15.976V813.108c0-9.586 6.39-15.976 15.976-15.976 9.585 0 15.975 6.39 15.975 15.976v191.696c-0.002 9.586-6.392 15.975-15.975 15.975z m67.093 3.195c-9.586 0-15.976-6.39-15.976-15.975V811.512c0-9.586 6.39-15.975 15.976-15.975s15.975 6.39 15.975 15.975V1008c0 9.585-6.39 15.975-15.975 15.975z m67.093 0c-9.585 0-15.975-6.39-15.975-15.975V811.512c0-9.586 6.39-15.975 15.975-15.975s15.976 6.39 15.976 15.975V1008c0 9.585-6.39 15.975-15.976 15.975z m-306.712 0h-150.16c-9.587 0-15.976-6.39-15.976-15.975s6.39-15.976 15.975-15.976h150.161c46.327 0 83.068-36.74 83.068-83.067s-36.741-83.067-83.068-83.067h-150.16c-9.587 0-15.976-6.39-15.976-15.976 0-9.586 6.39-15.975 15.975-15.975h150.161c63.898 0 115.019 51.118 115.019 115.018s-52.719 115.018-115.019 115.018z" fill="#193651" p-id="6052"></path><path d="M684.525 1020.78c-9.585 0-15.975-6.39-15.975-15.976V813.108c0-9.586 6.39-15.976 15.975-15.976 9.586 0 15.976 6.39 15.976 15.976v191.696c0 9.586-7.988 15.975-15.976 15.975z m-67.093 3.195c-9.586 0-15.976-6.39-15.976-15.975V811.512c0-9.586 6.39-15.975 15.976-15.975 9.585 0 15.975 6.39 15.975 15.975V1008c0 9.585-7.988 15.975-15.975 15.975z m-68.69 0c-9.586 0-15.976-6.39-15.976-15.975V811.512c0-9.586 6.39-15.975 15.976-15.975 9.586 0 15.975 6.39 15.975 15.975V1008c-0.002 9.585-6.392 15.975-15.975 15.975z" fill="#193651" p-id="6053"></path></svg>