<?xml version="1.0" standalone="no"?><!DOCTYPE svg PUBLIC "-//W3C//DTD SVG 1.1//EN" "http://www.w3.org/Graphics/SVG/1.1/DTD/svg11.dtd"><svg t="1703576127376" class="icon" viewBox="0 0 1280 1024" version="1.1" xmlns="http://www.w3.org/2000/svg" p-id="4717" xmlns:xlink="http://www.w3.org/1999/xlink" width="250" height="200"><path d="M1059.8784 868.1728c0 15.3472-14.2592 27.8272-31.808 27.8272H251.9552c-17.5872 0-31.8336-12.48-31.8336-27.8272V189.632c0-15.3472 14.2464-27.8144 31.8336-27.8144h776.1024c17.5488 0 31.808 12.4672 31.808 27.8144v678.5408z" fill="#B3B3B3" p-id="4718"></path><path d="M1060.4672 828.096c0 15.2064-14.272 27.5456-31.8464 27.5456h-777.216c-17.6 0-31.872-12.352-31.872-27.5456V155.5584c0-15.2192 14.2592-27.5584 31.872-27.5584H1028.608c17.5744 0 31.8464 12.3392 31.8464 27.5584v672.5376z" fill="#E5E7E6" p-id="4719"></path><path d="M827.4432 655.552a37.4656 37.4656 0 0 1-37.4528 37.4528H471.7056a37.4528 37.4528 0 0 1-37.44-37.4528v-56.1792a37.44 37.44 0 0 1 37.44-37.4272h318.2848a37.44 37.44 0 0 1 37.4528 37.4272v56.1792z" fill="#0071BC" p-id="4720"></path><path d="M827.4432 419.8528a37.4528 37.4528 0 0 1-37.4528 37.4528H471.7056a37.4528 37.4528 0 0 1-37.44-37.4528v-56.1664a37.4528 37.4528 0 0 1 37.44-37.4528h318.2848a37.4656 37.4656 0 0 1 37.4528 37.4528v56.1664z" fill="#067867" p-id="4721"></path><path d="M827.4432 636.8256a37.4656 37.4656 0 0 1-37.4528 37.4528H471.7056a37.4528 37.4528 0 0 1-37.44-37.4528v-56.1536a37.44 37.44 0 0 1 37.44-37.4528h318.2848a37.44 37.44 0 0 1 37.4528 37.4528v56.1536z" fill="#29ABE2" p-id="4722"></path><path d="M552.0768 584.3968l-1.9328-1.9456a2.7776 2.7776 0 0 0-3.9168 0l-42.8544 42.8544-23.3856-23.3728a2.752 2.752 0 0 0-3.8912 0l-1.9584 1.92a2.7392 2.7392 0 0 0 0 3.8784l25.3056 25.344v0.0256l1.9968 1.9456a2.7392 2.7392 0 0 0 3.8784 0l1.9712-1.9456 0.0384-0.0768 44.7616-44.7488a2.7264 2.7264 0 0 0-0.0128-3.8784z" fill="#FFFFFF" p-id="4723"></path><path d="M503.36 640.5248a7.296 7.296 0 0 1-5.2864-2.2272l-27.2384-27.2512a7.2576 7.2576 0 0 1-2.176-5.12 7.36 7.36 0 0 1 2.1376-5.3504l2.0352-1.9968a7.6416 7.6416 0 0 1 10.4704 0.0256l20.0704 20.096 39.552-39.552a7.6032 7.6032 0 0 1 10.5344 0l1.9328 1.92a7.3856 7.3856 0 0 1 0.0256 10.4704l-46.8096 46.8224a7.3728 7.3728 0 0 1-5.248 2.1632z" fill="#FFFFFF" p-id="4724"></path><path d="M827.4432 401.1392a37.4528 37.4528 0 0 1-37.4528 37.44H471.7056a37.4528 37.4528 0 0 1-37.44-37.44V344.96a37.4528 37.4528 0 0 1 37.44-37.44h318.2848a37.4528 37.4528 0 0 1 37.4528 37.44v56.1792z" fill="#23B08D" p-id="4725"></path></svg>