<?xml version="1.0" standalone="no"?><!DOCTYPE svg PUBLIC "-//W3C//DTD SVG 1.1//EN" "http://www.w3.org/Graphics/SVG/1.1/DTD/svg11.dtd"><svg t="1712543939452" class="icon" viewBox="0 0 1280 1024" version="1.1" xmlns="http://www.w3.org/2000/svg" p-id="8554" xmlns:xlink="http://www.w3.org/1999/xlink" width="250" height="200"><path d="M413.8112 752.2048v-1.3952c0.512 0.4608 1.024 0.9728 1.5232 1.3952h-1.5232z" fill="#B3B3B3" p-id="8555"></path><path d="M867.328 260.928H413.8112a37.8112 37.8112 0 0 0-37.7728 37.7856v453.4784a37.7984 37.7984 0 0 0 37.7728 37.7984H867.328a37.7984 37.7984 0 0 0 37.7984-37.7984V298.7136a37.7984 37.7984 0 0 0-37.7984-37.7856z m0 491.2768L720.4352 597.2608l-72.5504 63.0016-108.8384-100.7872-108.8512 100.7872-16.384 18.7136V298.7136H867.328v453.4912z" fill="#B3B3B3" p-id="8556"></path><path d="M677.0304 453.6192a70.7712 70.6304 90 1 0 141.2608 0 70.7712 70.6304 90 1 0-141.2608 0Z" fill="#B3B3B3" p-id="8557"></path><path d="M353.7664 350.2976v-37.7856h-47.168A37.7984 37.7984 0 0 0 268.8 350.2976v348.1728a37.7728 37.7728 0 0 0 37.7984 37.7856h47.168v-37.7856h-47.168V350.2976h47.168zM926.272 698.7136v37.7856h47.1424A37.7856 37.7856 0 0 0 1011.2 698.7136V350.528a37.8112 37.8112 0 0 0-37.7856-37.7984h-47.1424v37.7984h47.1424v348.1856h-47.1424z" fill="#B3B3B3" p-id="8558"></path><path d="M413.8112 725.2736v-1.408c0.512 0.4736 1.024 0.9728 1.5232 1.408h-1.5232z" fill="#CCD0D3" p-id="8559"></path><path d="M867.328 233.9968H413.8112a37.7984 37.7984 0 0 0-37.7728 37.7856v453.4912a37.8112 37.8112 0 0 0 37.7728 37.7984H867.328a37.8112 37.8112 0 0 0 37.7984-37.7984V271.7824a37.7984 37.7984 0 0 0-37.7984-37.7856z m0 491.2768L720.4352 570.3296l-72.5504 63.0144-108.8384-100.8-108.8512 100.8-16.384 18.7136V271.7824H867.328v453.4912z" fill="#CCD0D3" p-id="8560"></path><path d="M677.0304 426.688a70.7712 70.6304 90 1 0 141.2608 0 70.7712 70.6304 90 1 0-141.2608 0Z" fill="#CCD0D3" p-id="8561"></path><path d="M353.7664 323.3664v-37.7856h-47.168A37.7984 37.7984 0 0 0 268.8 323.3664v348.1728a37.7728 37.7728 0 0 0 37.7984 37.7856h47.168v-37.7856h-47.168V323.3664h47.168zM926.272 671.7696v37.7856h47.1424A37.7856 37.7856 0 0 0 1011.2 671.7696V323.5968a37.8112 37.8112 0 0 0-37.7856-37.7984h-47.1424v37.7984h47.1424v348.1728h-47.1424z" fill="#E5E7E6" p-id="8562"></path></svg>