<?xml version="1.0" standalone="no"?><!DOCTYPE svg PUBLIC "-//W3C//DTD SVG 1.1//EN" "http://www.w3.org/Graphics/SVG/1.1/DTD/svg11.dtd"><svg t="1712065981668" class="icon" viewBox="0 0 1280 1024" version="1.1" xmlns="http://www.w3.org/2000/svg" p-id="5301" xmlns:xlink="http://www.w3.org/1999/xlink" width="250" height="200"><path d="M640 861.6704c-183.9616 0-333.6192-149.6576-333.6192-333.6064C306.3808 344.1024 456.0384 194.432 640 194.432s333.6192 149.6576 333.6192 333.6192S823.9616 861.6704 640 861.6704z m0-603.008c-148.5312 0-269.4016 120.8448-269.4016 269.4016 0 148.5312 120.8576 269.3888 269.4016 269.3888 148.5312 0 269.376-120.8448 269.376-269.3888 0.0128-148.5568-120.8448-269.4016-269.376-269.4016z" fill="#B3B3B3" p-id="5302"></path><path d="M640 829.568c-183.9616 0-333.6192-149.6576-333.6192-333.6064 0-183.9616 149.6576-333.6192 333.6192-333.6192s333.6192 149.6576 333.6192 333.6192c0 183.936-149.6576 333.6064-333.6192 333.6064z m0-603.0208c-148.5312 0-269.4016 120.8448-269.4016 269.4016 0 148.5312 120.8576 269.3888 269.4016 269.3888 148.5312 0 269.376-120.8448 269.376-269.3888 0.0128-148.544-120.8448-269.4016-269.376-269.4016z" fill="#E5E7E6" p-id="5303"></path><path d="M600.96 347.6992a21.824 21.824 0 0 1 43.6352 0v197.952c0 12.0448-9.7664 21.824-21.8112 21.824a21.8368 21.8368 0 0 1-21.824-21.824V347.6992z" fill="#B3B3B3" p-id="5304"></path><path d="M784 545.5872a21.888 21.888 0 0 1-21.888 21.888H622.848a21.888 21.888 0 0 1 0-43.776h139.264c12.0832 0 21.888 9.8048 21.888 21.888z" fill="#29ABE2" p-id="5305"></path></svg>