<?xml version="1.0" standalone="no"?><!DOCTYPE svg PUBLIC "-//W3C//DTD SVG 1.1//EN" "http://www.w3.org/Graphics/SVG/1.1/DTD/svg11.dtd"><svg t="1703578862909" class="icon" viewBox="0 0 1024 1024" version="1.1" xmlns="http://www.w3.org/2000/svg" p-id="2977" xmlns:xlink="http://www.w3.org/1999/xlink" width="200" height="200"><path d="M364.79 567.984c0-20.8-6.4-39.999-17.599-56h164.796V351.99c-16 11.199-35.2 17.598-56 17.598-56 0-100.797-44.798-100.797-100.797s44.798-100.798 100.797-100.798c20.8 0 40 6.4 56 17.599V16H16v495.986h164.796c-11.2 16-17.6 35.2-17.6 55.999 0 56 44.8 100.798 100.799 100.798s100.795-44.803 100.795-100.8z" fill="#FFFFFF" p-id="2978"></path><path d="M263.992 684.78c-63.997 0-116.796-52.799-116.796-116.796 0-14.4 3.201-27.2 6.4-39.999H16c-9.6 0-16-6.4-16-16V16C0 6.4 6.4 0 16 0h495.987c9.598 0 15.998 6.4 15.998 16v169.595c0 6.4-3.201 11.199-8 14.4-4.8 3.2-11.2 3.2-16-1.6-14.4-9.601-30.399-14.4-48-14.4-46.399 0-84.797 38.398-84.797 84.797s38.398 84.797 84.797 84.797c17.599 0 33.6-4.8 48-14.4 4.799-3.2 11.198-3.2 16-1.6 4.799 3.2 8 8 8 14.4v159.996c0 9.6-6.4 16-16 16H372.788c4.8 12.8 6.4 27.2 6.4 39.999 1.6 63.997-51.198 116.796-115.196 116.796zM32 495.986h148.795c6.4 0 11.199 3.201 14.4 8s3.2 11.2-1.6 16c-9.602 14.4-14.4 30.4-14.4 48 0 46.399 38.398 84.797 84.796 84.797s84.798-38.398 84.798-84.797c0-17.599-4.8-33.6-14.4-48-3.201-4.798-3.201-11.198-1.6-16 3.2-4.799 8-8 14.4-8h148.794V379.19c-12.8 4.8-27.2 6.4-39.999 6.4-63.997 0-116.796-52.799-116.796-116.796s52.799-116.796 116.796-116.796c14.4 0 27.2 3.2 40 6.4v-128H31.998v465.588z" fill="#193651" p-id="2979"></path><path d="M511.985 16v164.796c-16-11.2-35.2-17.6-56-17.6-56 0-100.798 44.8-100.798 100.799s44.799 100.797 100.798 100.797c20.8 0 40-6.4 56-17.599V511.99H676.78c-11.2-16-17.599-35.2-17.599-56 0-56 44.798-100.797 100.798-100.797s100.797 44.798 100.797 100.797c0 20.8-6.4 40-17.598 56h164.795V16H511.985z" fill="#FFFFFF" p-id="2980"></path><path d="M1007.97 527.985H843.176c-6.4 0-11.199-3.201-14.4-8s-3.2-11.2 1.601-16c9.6-14.4 14.4-30.399 14.4-48 0-46.399-38.399-84.797-84.797-84.797-46.4 0-84.798 38.398-84.798 84.797 0 16 4.8 31.999 12.8 44.798 3.2 3.201 4.8 6.4 4.8 11.2 0 9.6-6.4 16-16.001 16H511.985c-9.601 0-16-6.4-16-16V372.785c-12.8 4.8-27.2 6.4-40 6.4-63.997 0-116.796-52.798-116.796-116.796s52.799-116.796 116.796-116.796c14.4 0 27.2 3.2 40 6.4V16c0-9.6 6.399-16 16-16h495.986c9.6 0 16 6.4 16 16v495.987c0 9.598-6.4 15.998-16 15.998z m-139.196-31.999H991.97V32H527.985v148.795c0 6.4-3.201 11.199-8 14.4s-11.2 3.2-16-1.6c-14.4-9.602-30.399-14.4-48-14.4-46.399 0-84.797 38.398-84.797 84.796s38.398 84.798 84.797 84.798c17.599 0 33.6-4.8 48-14.4 4.799-3.201 11.198-3.201 16-1.6 4.799 3.2 8 8 8 14.4v148.794h123.196c-4.8-12.8-6.4-27.2-6.4-39.999 0-63.997 52.798-116.796 116.796-116.796s116.796 52.799 116.796 116.796c-1.598 12.804-4.797 27.204-9.599 40.003z" fill="#193651" p-id="2981"></path><path d="M924.774 447.987c-4.8-87.998-76.797-156.795-164.795-156.795s-159.996 70.397-164.796 156.795h-19.199V79.998h367.99v367.989h-19.2z" fill="#F16051" p-id="2982"></path><path d="M79.998 447.987V79.998h367.989v19.2c-87.998 4.799-156.795 76.796-156.795 164.794s70.397 159.996 156.795 164.796v19.199H79.998z" fill="#4FBF9F" p-id="2983"></path><path d="M567.984 659.181c-20.8 0-39.999 6.4-56 17.599V511.985H351.99c11.199 16 17.598 35.2 17.598 55.999 0 56-44.798 100.798-100.797 100.798s-100.798-44.799-100.798-100.798c0-20.8 6.4-39.999 17.599-56H16v495.987h495.986V843.175c16 11.2 35.2 17.6 55.999 17.6 56 0 100.798-44.799 100.798-100.798S623.98 659.18 567.984 659.18z" fill="#FFFFFF" p-id="2984"></path><path d="M511.985 1023.971H16c-9.6 0-16-6.4-16-16V511.985c0-9.601 6.4-16 16-16h169.595c6.4 0 11.199 3.2 14.4 8 3.2 4.799 3.2 11.198-1.6 16-9.601 14.4-14.4 30.398-14.4 47.999 0 46.399 38.398 84.797 84.797 84.797s84.797-38.398 84.797-84.797c0-17.599-4.8-33.6-14.4-48-3.2-4.799-3.2-11.198-1.6-16 3.2-4.799 8-8 14.4-8h159.996c9.6 0 16 6.4 16 16v139.197c12.8-4.8 27.2-6.4 39.999-6.4 63.997 0 116.796 52.798 116.796 116.796s-52.799 116.796-116.796 116.796c-14.4 0-27.2-3.2-39.999-6.4v135.996c0 9.602-6.4 16.002-16 16.002zM31.999 991.972h463.987V843.178c0-6.4 3.201-11.2 8-14.4s11.2-3.201 16 1.6c14.4 9.6 30.4 14.4 48 14.4 46.399 0 84.797-38.399 84.797-84.797s-38.398-84.798-84.797-84.798c-17.599 0-33.6 4.8-48 14.4-4.798 3.201-11.198 3.201-16 1.6-4.799-3.2-8-8-8-14.4V527.986H379.19c4.8 12.8 6.4 27.2 6.4 39.999 0 63.997-52.799 116.796-116.796 116.796s-116.796-52.799-116.796-116.796c0-14.4 3.2-27.2 6.4-39.999h-128v463.987h1.6z" fill="#193651" p-id="2985"></path><path d="M79.998 943.973V575.984h23.999c4.799 87.998 76.797 156.795 164.795 156.795s159.996-70.397 164.795-156.795h14.4v367.99H79.998z" fill="#FDBF5E" p-id="2986"></path><path d="M129.596 127.997h31.998v31.999h-31.998z m732.779 0h31.999v31.999h-32z" fill="#193651" p-id="2987"></path><path d="M1007.97 511.985H843.176c11.2-16 17.6-35.2 17.6-56 0-56-44.799-100.798-100.798-100.798s-100.798 44.799-100.798 100.798c0 20.8 6.4 40 17.599 56H511.982V676.78c16-11.2 35.2-17.599 56-17.599 56 0 100.798 44.798 100.798 100.798S623.98 860.776 567.982 860.776c-20.8 0-40-6.4-56-17.598v164.795h495.987V511.985z" fill="#FFFFFF" p-id="2988"></path><path d="M1007.97 1023.971H511.986c-9.601 0-16-6.4-16-16V843.175c0-6.4 3.2-11.199 8-14.4s11.198-3.2 16 1.601c14.4 9.6 30.398 14.4 47.999 14.4 46.399 0 84.797-38.399 84.797-84.797s-38.398-84.798-84.797-84.798c-17.599 0-33.6 4.8-48 14.4-4.799 3.201-11.198 3.201-16 1.6-4.799-3.2-8-8-8-14.4V511.988c0-9.601 6.4-16 16-16h139.197c-4.8-12.8-6.4-27.2-6.4-40 0-63.997 52.798-116.796 116.796-116.796s116.796 52.799 116.796 116.796c0 14.4-3.2 27.2-6.4 40h135.996c4.799 0 8 1.6 11.199 4.798 3.199 3.201 4.799 6.4 4.799 11.2v495.986c0.004 9.6-6.396 16-15.996 16z m-479.985-31.999h463.987V527.985H843.178c-6.4 0-11.2-3.201-14.4-8s-3.201-11.2 1.6-16c9.6-14.4 14.4-30.399 14.4-48 0-46.399-38.399-84.797-84.797-84.797-46.399 0-84.798 38.398-84.798 84.797 0 17.599 4.8 33.6 14.4 48 3.201 4.799 3.201 11.198 1.6 16-3.2 4.799-8 8-14.4 8H527.986v123.196c12.8-4.8 27.2-6.4 39.999-6.4 63.997 0 116.796 52.798 116.796 116.796s-52.799 116.796-116.796 116.796c-14.4 0-27.2-3.2-39.999-6.4v120z" fill="#193651" p-id="2989"></path><path d="M575.984 943.973v-19.2c87.998-4.798 156.795-76.796 156.795-164.794s-70.397-159.996-156.795-164.796v-19.199h367.99v367.99h-367.99z" fill="#2EA2DB" p-id="2990"></path><path d="M129.596 868.774h31.998v32h-31.998z m732.779 0h31.999v32h-32z" fill="#193651" p-id="2991"></path></svg>