<?xml version="1.0" standalone="no"?><!DOCTYPE svg PUBLIC "-//W3C//DTD SVG 1.1//EN" "http://www.w3.org/Graphics/SVG/1.1/DTD/svg11.dtd"><svg t="1739513676924" class="icon" viewBox="0 0 1024 1024" version="1.1" xmlns="http://www.w3.org/2000/svg" p-id="15906" xmlns:xlink="http://www.w3.org/1999/xlink" width="200" height="200"><path d="M42.37125 585.542h233.418v422.07H42.37125z" fill="#FFFFFF" p-id="15907"></path><path d="M275.78725 1023.6H42.37125c-9.594 0-15.989-6.395-15.989-15.988v-422.07c0-9.594 6.395-15.989 15.989-15.989h233.418c9.594 0 15.988 6.395 15.988 15.989v422.07c-0.002 9.593-7.996 15.988-15.99 15.988z m-217.43-31.975h201.442V601.53H58.35725v390.095z" fill="#193651" p-id="15908"></path><path d="M749.01725 585.542h233.418v422.07H749.01725z" fill="#FFFFFF" p-id="15909"></path><path d="M982.43525 1023.6H749.01725c-9.594 0-15.989-6.395-15.989-15.988v-422.07c0-9.594 6.395-15.989 15.989-15.989h233.418c9.593 0 15.988 6.395 15.988 15.989v422.07c0 9.593-7.994 15.988-15.988 15.988z m-217.43-31.975h201.441V601.53H765.00525v390.095z" fill="#193651" p-id="15910"></path><path d="M1008.01525 1023.6H16.78925c-9.593 0-15.988-6.395-15.988-15.988s6.395-15.989 15.988-15.989h991.226c9.593 0 15.988 6.395 15.988 15.989s-6.395 15.988-15.988 15.988z" fill="#193651" p-id="15911"></path><path d="M894.50325 364.915H130.30125L16.78925 585.542h991.226z" fill="#F16051" p-id="15912"></path><path d="M1008.01525 601.53H16.78925c-4.796 0-11.19-3.198-14.39-7.994s-3.198-11.19 0-15.988L115.91325 356.919c3.198-4.796 7.994-7.994 14.389-7.994H892.90325c6.395 0 11.19 3.198 14.389 7.994l113.512 220.629c3.196 4.795 1.599 11.19 0 15.988-1.6 4.796-7.995 7.994-12.79 7.994zM42.37125 569.555h938.467L883.31325 380.904h-743.42L42.37125 569.555z" fill="#193651" p-id="15913"></path><path d="M817.76325 467.234L512.40325 235.415l-305.36 231.82z" fill="#E1E6E9" p-id="15914"></path><path d="M817.76325 483.223H207.04325c-6.395 0-12.79-4.796-14.39-11.19-1.598-6.396 0-14.39 4.797-17.586l305.361-231.82c6.395-4.795 14.39-4.795 19.185 0l305.362 231.82c4.796 4.795 7.994 11.19 4.796 17.585-1.6 6.393-7.994 11.19-14.39 11.19zM255.00325 451.248h516.397L512.40225 256.2 255.00325 451.25z" fill="#193651" p-id="15915"></path><path d="M397.29325 403.285l115.109-87.932 115.11 87.932z" fill="#FFFFFF" p-id="15916"></path><path d="M275.78725 535.982h473.23v471.63h-473.23z" fill="#FDBF5E" p-id="15917"></path><path d="M749.01725 1023.6h-473.23c-9.593 0-15.988-6.395-15.988-15.988v-471.63c0-9.594 6.395-15.989 15.988-15.989h473.23c9.593 0 15.988 6.395 15.988 15.989v471.632c0 9.591-6.395 15.986-15.988 15.986z m-457.242-31.975h441.255V551.968H291.77525v439.657z" fill="#193651" p-id="15918"></path><path d="M340.21725 598.764h345.33V990.46h-345.33z" fill="#FFFFFF" p-id="15919"></path><path d="M245.41225 467.234H779.39325v68.748H245.41225z" fill="#FDBF5E" p-id="15920"></path><path d="M779.39425 551.968H245.41225c-9.594 0-15.989-6.395-15.989-15.989v-68.747c0-9.593 6.395-15.988 15.989-15.988H779.39325c9.593 0 15.988 6.395 15.988 15.988v68.747c-0.002 7.997-6.397 15.989-15.988 15.989z m-517.996-31.975h502.008v-36.77H261.39825v36.77zM410.08325 643.096h31.974v31.975H410.08325z m86.332 0h31.975v31.975h-31.975z m86.333 0h31.975v31.975h-31.975z" fill="#193651" p-id="15921"></path><path d="M595.53825 991.625V854.133c0-44.764-36.77-83.134-83.134-83.134-44.765 0-83.134 36.77-83.134 83.134v137.492h166.268z" fill="#E1E6E9" p-id="15922"></path><path d="M878.51725 807.77h59.153v59.153h-59.153z m-84.734 0h59.154v59.153H793.78325z m84.734-83.137h59.153v59.154h-59.153z m-84.734 0h59.154v59.154H793.78325zM171.86925 807.77h59.153v59.154h-59.153z m-84.734 0h59.154v59.154H87.13525z m84.734-83.136h59.153v59.154h-59.153z m-84.734 0h59.154v59.154H87.13525z" fill="#2EA2DB" p-id="15923"></path><path d="M512.40225 251.404c-9.594 0-15.989-6.395-15.989-15.989V16.388C496.41325 6.795 502.80825 0.4 512.40325 0.4s15.988 6.395 15.988 15.988v219.027c0 7.995-6.395 15.989-15.988 15.989z" fill="#193651" p-id="15924"></path><path d="M697.85725 134.696H512.40225V16.388h185.455l-47.963 59.154z" fill="#4FBF9F" p-id="15925"></path><path d="M697.85725 150.682H512.40225c-9.594 0-15.989-6.395-15.989-15.988V16.388C496.41325 6.795 502.80825 0.4 512.40325 0.4h185.455c6.395 0 11.19 3.198 14.39 9.593 3.198 4.796 1.598 12.79-1.6 17.586l-39.969 47.963 38.37 46.364c3.198 3.198 4.795 7.994 4.795 12.79 0.002 7.992-6.393 15.986-15.986 15.986z m-169.467-31.975H664.28325l-27.179-31.974c-4.796-6.395-4.796-14.39 0-20.785l27.18-31.974H528.38925v84.733z" fill="#193651" p-id="15926"></path></svg>