<?xml version="1.0" standalone="no"?><!DOCTYPE svg PUBLIC "-//W3C//DTD SVG 1.1//EN" "http://www.w3.org/Graphics/SVG/1.1/DTD/svg11.dtd"><svg t="1703579105765" class="icon" viewBox="0 0 1024 1024" version="1.1" xmlns="http://www.w3.org/2000/svg" p-id="4655" xmlns:xlink="http://www.w3.org/1999/xlink" width="200" height="200"><path d="M103.355 548.568L512 651.924l408.645-103.356L512 483.376z" fill="#FFFFFF" p-id="4656"></path><path d="M512 667.823h-3.181L98.586 562.879c-7.951-1.59-12.72-7.95-12.72-15.901s6.36-14.311 12.72-14.311l408.644-65.192H512l408.645 65.192c7.95 1.59 12.72 7.95 12.72 14.31 0 7.952-4.77 14.312-12.72 15.902L512 666.232c3.18 1.59 1.59 1.59 0 1.59zM181.268 551.749L512 636.022l330.732-84.273L512 499.278l-330.732 52.471z" fill="#193651" p-id="4657"></path><path d="M407.056 535.848c12.72 6.36 20.671 20.671 20.671 34.982v90.633h168.546V570.83c0-14.31 7.95-27.031 20.67-34.982 66.783-36.57 112.895-108.123 112.895-190.807 0-128.794-111.304-232.149-243.279-216.247-101.762 11.13-182.856 93.814-192.397 195.576-7.95 90.635 39.751 170.138 112.894 211.478z" fill="#FFFFFF" p-id="4658"></path><path d="M596.273 677.364H427.727c-9.54 0-15.901-6.36-15.901-15.901V570.83c0-7.95-4.77-15.901-12.72-20.671-81.094-44.521-128.794-135.154-119.255-227.377 9.541-109.714 96.993-198.758 206.706-209.888 9.542-1.59 17.49-1.59 27.032-1.59 128.793 0 233.737 104.943 233.737 233.737 0 85.863-46.112 163.776-120.845 205.118-7.95 4.77-12.72 12.72-12.72 20.67v90.634c-1.587 7.95-7.947 15.901-17.488 15.901z m-152.646-31.8H580.37V570.83c0-20.671 11.13-38.161 28.622-49.29 65.192-34.983 104.944-103.354 104.944-176.497 0-111.304-90.633-201.936-201.937-201.936-7.95 0-15.901 0-23.85 1.59-93.814 11.13-170.136 87.454-178.087 181.266-7.95 81.093 33.392 157.415 103.354 197.167 17.49 9.541 28.621 28.622 28.621 49.29v73.143h1.589z" fill="#193651" p-id="4659"></path><path d="M512 1008.094L103.355 904.741V548.568L512 651.924z" fill="#FFFFFF" p-id="4660"></path><path d="M512 1023.996h-3.181L98.586 920.643c-6.36-1.59-12.72-7.95-12.72-15.902V548.568c0-4.77 1.59-9.54 6.36-12.72 3.18-3.181 9.54-4.77 14.31-3.181L515.181 636.02c6.36 1.59 12.72 7.95 12.72 15.901v356.173c0 4.77-1.59 9.542-6.36 12.72-3.18 3.182-6.362 3.182-9.541 3.182zM119.257 892.02L496.1 989.014v-324.37l-376.844-95.405v322.782z" fill="#193651" p-id="4661"></path><path d="M166.959 855.45V629.663l281.44 71.552v225.789z" fill="#F16051" p-id="4662"></path><path d="M512 1008.094l408.645-103.353V548.568L512 651.924z" fill="#FFFFFF" p-id="4663"></path><path d="M512 1023.996c-3.181 0-6.36-1.59-9.541-3.18-3.181-3.178-6.36-7.95-6.36-12.72V651.925c0-7.951 4.77-14.311 12.72-15.902L917.464 532.67c4.77-1.59 9.541 0 14.31 3.181 3.182 3.181 6.36 7.95 6.36 12.72v356.173c0 7.951-4.769 14.311-12.72 15.902L516.77 1023.998l-4.77-0.002z m15.9-359.352v324.372l376.843-95.402V567.653L527.9 664.643z" fill="#193651" p-id="4664"></path><path d="M575.602 701.214l281.44-71.552V855.45l-281.44 71.552z" fill="#F16051" p-id="4665"></path><path d="M596.273 755.277l408.644-103.353-84.272-103.356L512 651.924z" fill="#E1E6E9" p-id="4666"></path><path d="M596.273 771.176c-4.77 0-9.542-1.59-12.72-6.36L499.28 661.463c-3.181-4.77-4.77-9.542-3.181-14.311 1.59-4.77 6.36-9.541 11.13-11.13L915.872 532.67c6.36-1.59 12.72 0 15.902 4.77l84.272 103.353c3.181 4.77 4.77 9.541 3.181 14.31-1.59 4.77-6.36 9.542-11.13 11.13L599.455 769.585c0 1.591-1.59 1.591-3.181 1.591z m-55.651-109.713l62.013 76.322 375.253-95.403-62.013-76.322-375.253 95.403z" fill="#193651" p-id="4667"></path><path d="M427.727 755.277L19.083 651.924l84.272-103.356L512 651.924z" fill="#E1E6E9" p-id="4668"></path><path d="M427.727 771.176h-3.18L15.902 667.823c-4.77-1.59-9.54-4.77-11.13-11.13-1.59-4.77 0-11.13 3.182-14.31l84.272-103.354c3.182-4.77 9.542-6.36 15.902-4.77l408.645 103.354c4.77 1.59 9.541 4.77 11.13 11.13 1.59 4.769 0 11.13-3.182 14.31L440.45 766.406c-3.183 3.181-7.953 4.77-12.723 4.77zM47.704 642.382l375.254 95.403 62.013-76.322-375.256-95.403-62.01 76.322z" fill="#193651" p-id="4669"></path><path d="M343.455 348.222a168.545 168.545 0 1 0 337.09 0 168.545 168.545 0 1 0-337.09 0z" fill="#FDBF5E" p-id="4670"></path><path d="M845.911 364.122h-36.57c-9.541 0-15.901-6.36-15.901-15.902 0-9.541 6.36-15.901 15.901-15.901h36.57c9.542 0 15.902 6.36 15.902 15.901s-7.95 15.902-15.902 15.902z m-631.252 0h-36.57c-9.542 0-15.902-6.36-15.902-15.902 0-9.541 6.36-15.901 15.902-15.901h36.57c9.541 0 15.901 6.36 15.901 15.901s-7.95 15.902-15.901 15.902zM772.769 241.688c-3.182-7.95 0-17.49 7.95-20.67l33.392-14.312c7.95-3.18 17.49 0 20.67 7.95 3.182 7.952 0 17.49-7.95 20.672l-33.391 14.31c-7.951 3.18-17.49 0-20.671-7.95z m-62.011-92.223c-6.36-6.36-6.36-15.902 0-22.262l25.44-25.44c6.36-6.36 15.902-6.36 22.262 0 6.36 6.36 6.36 15.901 0 22.261l-23.852 25.44c-6.36 6.36-17.49 6.36-23.85 0zM620.123 89.042c-7.951-3.18-12.72-12.72-7.951-20.67l12.72-33.392c3.181-7.95 12.72-12.72 20.671-7.95 7.951 3.18 12.72 12.72 7.951 20.67l-14.31 33.392c-1.59 6.362-11.13 11.131-19.081 7.95zM512 66.782c-9.541 0-15.901-6.36-15.901-15.9v-34.98C496.099 6.36 502.459 0 512 0s15.901 6.36 15.901 15.901v34.982c-0.002 9.54-6.362 15.9-15.901 15.9zM383.206 79.503l-14.31-33.391c-3.182-7.951 0-17.49 7.95-20.671 7.95-3.181 17.49 0 20.671 7.95l14.311 33.392c3.181 7.95 0 17.49-7.95 20.67-7.951 4.77-17.493 0-20.672-7.95z m-93.814 69.962l-25.44-25.44c-6.36-6.361-6.36-15.902 0-22.262 6.36-6.36 15.901-6.36 22.261 0l25.441 25.44c6.36 6.36 6.36 15.902 0 22.262-4.772 6.36-15.901 6.36-22.262 0zM230.56 249.639l-33.391-14.311c-7.95-3.181-12.72-12.72-7.95-20.671 3.18-7.95 12.72-12.72 20.67-7.95l33.392 14.31c7.95 3.181 12.72 12.72 7.95 20.671-3.18 7.95-12.72 11.13-20.67 7.95z" fill="#193651" p-id="4671"></path><path d="M512 233.737c-14.31 0-25.44 12.72-25.44 27.032l11.13 139.925c0 7.95 6.36 12.72 14.31 12.72s14.31-6.36 14.31-12.72l11.13-139.925c0-14.311-11.13-27.032-25.44-27.032zM496.099 448.396a15.901 15.901 0 1 0 31.802 0 15.901 15.901 0 1 0-31.802 0z" fill="#FFFFFF" p-id="4672"></path></svg>