<?xml version="1.0" standalone="no"?><!DOCTYPE svg PUBLIC "-//W3C//DTD SVG 1.1//EN" "http://www.w3.org/Graphics/SVG/1.1/DTD/svg11.dtd"><svg t="1711938623646" class="icon" viewBox="0 0 1280 1024" version="1.1" xmlns="http://www.w3.org/2000/svg" p-id="12298" xmlns:xlink="http://www.w3.org/1999/xlink" width="250" height="200"><path d="M491.4048 695.1808h165.632v-32.9472h-165.632v32.9472zM690.1888 201.0752h-99.4048v32.9344h99.4048v-32.9344z" fill="#B3B3B3" p-id="12299"></path><path d="M491.4048 464.6144h298.1632v-32.96H491.4048v32.96z" fill="#94CDDD" p-id="12300"></path><path d="M756.4416 826.9184v-115.2768a16.512 16.512 0 0 1 16.5632-16.4608h115.9296L756.4416 826.9184z" fill="#B3B3B3" p-id="12301"></path><path d="M888.9216 201.0752h-99.3664s-49.6896-2.944-49.6896 32.9344c0 22.6304-13.952 30.528-27.072 32.96H573.2224c-14.2976-1.7792-32.128-8.8192-32.128-32.96 0-40.3968-49.7024-32.9344-49.7024-32.9344h-99.3664a33.0368 33.0368 0 0 0-33.152 32.9344v592.896a33.024 33.024 0 0 0 33.152 32.9472H772.992l149.0816-148.224V234.0096a33.024 33.024 0 0 0-33.152-32.9344z m0 461.1584h-132.48a33.024 33.024 0 0 0-33.1392 32.9472v131.7248H408.5888a16.4864 16.4864 0 0 1-16.5504-16.4608V250.496a16.512 16.512 0 0 1 16.5504-16.4864h79.4496c10.4704 3.5584 19.712 12.4928 19.9296 32.96 0.3968 36.0064 49.7024 32.9344 49.7024 32.9344h165.632s49.7024 0.1408 49.7024-37.7344c0-18.752 12.3904-25.8048 24.7936-28.16h74.5984a16.512 16.512 0 0 1 16.5376 16.4864v411.7376z" fill="#B3B3B3" p-id="12302"></path><path d="M491.4048 679.4368h165.632v-32.9216h-165.632v32.9216zM690.1888 185.344h-99.4048v32.9728h99.4048V185.344z" fill="#E5E7E6" p-id="12303"></path><path d="M491.4048 444.1728h298.1632v-32.9216H491.4048v32.9216z" fill="#29ABE2" p-id="12304"></path><path d="M491.4048 575.8464h298.1632v-32.96H491.4048v32.96z" fill="#94CDDD" p-id="12305"></path><path d="M491.4048 555.4176h298.1632v-32.9344H491.4048v32.9344z" fill="#29ABE2" p-id="12306"></path><path d="M756.4416 811.1872v-115.2896a16.512 16.512 0 0 1 16.5632-16.4608h115.9296L756.4416 811.1872z" fill="#E5E7E6" p-id="12307"></path><path d="M888.9216 185.344h-99.3664s-49.6896-2.944-49.6896 32.96c0 22.6048-13.952 30.4896-27.072 32.9344H573.2224c-14.2976-1.792-32.128-8.8064-32.128-32.9344 0-40.4224-49.7024-32.96-49.7024-32.96h-99.3664a33.0496 33.0496 0 0 0-33.152 32.96v592.8704a33.024 33.024 0 0 0 33.152 32.9344H772.992l149.0816-148.224V218.3168a33.0496 33.0496 0 0 0-33.152-32.9728z m0 461.1712h-132.48a33.024 33.024 0 0 0-33.1392 32.9344v131.7376H408.5888a16.4736 16.4736 0 0 1-16.5504-16.4736V234.7776a16.512 16.512 0 0 1 16.5504-16.4608h79.4496c10.4704 3.5584 19.712 12.4672 19.9296 32.9344 0.3968 36.0064 49.7024 32.9088 49.7024 32.9088h165.632s49.7024 0.1664 49.7024-37.696c0-18.7648 12.3904-25.8176 24.7936-28.1472h74.5984c9.1648 0 16.5376 7.3856 16.5376 16.4608v411.7376z" fill="#E5E7E6" p-id="12308"></path></svg>