<?xml version="1.0" standalone="no"?><!DOCTYPE svg PUBLIC "-//W3C//DTD SVG 1.1//EN" "http://www.w3.org/Graphics/SVG/1.1/DTD/svg11.dtd"><svg t="1703571175265" class="icon" viewBox="0 0 1280 1024" version="1.1" xmlns="http://www.w3.org/2000/svg" p-id="3275" xmlns:xlink="http://www.w3.org/1999/xlink" width="250" height="200"><path d="M1017.8304 860.224c0 14.6304-12.9024 26.4448-28.8128 26.4448h-703.104c-15.936 0-28.8384-11.8272-28.8384-26.4448V215.1936c0-14.6176 12.9024-26.4448 28.8384-26.4448h703.104c15.9104 0 28.8128 11.8272 28.8128 26.4448v645.0304z" fill="#B3B3B3" p-id="3276"></path><path d="M1017.8304 823.5008c0 14.5024-12.9024 26.2784-28.8128 26.2784h-703.104c-15.936 0-28.8384-11.776-28.8384-26.2784V182.6688c0-14.5024 12.9024-26.2528 28.8384-26.2528h703.104c15.9104 0 28.8128 11.7504 28.8128 26.2528v640.832z" fill="#E5E7E6" p-id="3277"></path><path d="M292.224 216.1024h685.9776v440.896H292.224z" fill="#B3B3B3" p-id="3278"></path><path d="M292.224 689.5488h685.9776v111.8976H292.224z" fill="#23B08D" p-id="3279"></path></svg>