<?xml version="1.0" standalone="no"?><!DOCTYPE svg PUBLIC "-//W3C//DTD SVG 1.1//EN" "http://www.w3.org/Graphics/SVG/1.1/DTD/svg11.dtd"><svg t="1712544135510" class="icon" viewBox="0 0 1280 1024" version="1.1" xmlns="http://www.w3.org/2000/svg" p-id="9397" xmlns:xlink="http://www.w3.org/1999/xlink" width="250" height="200"><path d="M908.0448 164.6336H371.8912a44.6976 44.6976 0 0 0-44.6592 44.6848v625.5488a44.6848 44.6848 0 0 0 44.6592 44.672h536.1536a44.736 44.736 0 0 0 44.7232-44.672v-625.536a44.7488 44.7488 0 0 0-44.7232-44.6976z" fill="#B3B3B3" p-id="9398"></path><path d="M908.0448 137.152H371.8912a44.6848 44.6848 0 0 0-44.6592 44.672v625.5488a44.672 44.672 0 0 0 44.6592 44.6592h536.1536a44.7232 44.7232 0 0 0 44.7232-44.6592V181.824a44.736 44.736 0 0 0-44.7232-44.672z" fill="#E5E7E6" p-id="9399"></path><path d="M863.3984 181.824h44.6464v625.5488H371.8912V181.824H640" fill="#FFFFFF" p-id="9400"></path><path d="M464.2816 623.9616h202.7904c14.0032 0 25.344-9.9712 25.344-22.336 0-12.3776-11.3536-22.336-25.344-22.336H464.2816c-14.0288 0-25.3568 9.9584-25.3568 22.336 0 12.3648 11.328 22.336 25.3568 22.336z m-8.9472-126.208h131.1744c9.0624 0 16.4096-9.9584 16.4096-22.3232 0-12.3904-7.3472-22.336-16.4096-22.336H455.3344c-9.1008 0-16.4096 9.9456-16.4096 22.336 0 12.352 7.3088 22.3232 16.4096 22.3232z m363.392 200.704H461.2736c-12.3776 0-22.3488 9.9712-22.3488 22.336 0 12.4032 9.9712 22.3488 22.3488 22.3488h357.4528c12.352 0 22.3488-9.9456 22.3488-22.3488 0-12.352-9.9968-22.336-22.3488-22.336z" fill="#B3B3B3" p-id="9401"></path><path d="M766.7456 204.096h74.3296v174.6048l-55.9488-22.3744-18.3808-7.3728-18.4192 7.3728-55.8976 22.3744V204.096z" fill="#18775C" p-id="9402"></path><path d="M766.7456 181.824h74.3296v174.6176l-55.9488-22.3872-18.3808-7.3856-18.4192 7.3856-55.8976 22.3872V181.824z" fill="#23B08D" p-id="9403"></path></svg>