<?xml version="1.0" standalone="no"?><!DOCTYPE svg PUBLIC "-//W3C//DTD SVG 1.1//EN" "http://www.w3.org/Graphics/SVG/1.1/DTD/svg11.dtd"><svg t="1703817078944" class="icon" viewBox="0 0 1280 1024" version="1.1" xmlns="http://www.w3.org/2000/svg" p-id="6158" xmlns:xlink="http://www.w3.org/1999/xlink" width="250" height="200"><path d="M484.4032 750.7584l-44.096 44.3904-70.7712-70.9504 44.8128-42.9312c-22.1696-33.2288-37.0048-67.7888-44.2496-106.1376H307.072v-100.8h62.8224c7.5136-38.1568 21.696-72.9728 43.6608-105.152a68856.896 68856.896 0 0 0-44.7232-42.8288l72.4608-72.2688 42.8416 44.2624c32.4992-21.9904 67.1744-36.5312 105.472-43.8528v-63.104h100.4928v63.0272c38.6304 7.3856 73.2672 22.016 105.5232 43.6864a122379.392 122379.392 0 0 0 44.2624-44.4416l70.2976 70.5408-44.224 44.0064c21.9008 32.6656 36.6208 67.264 43.9424 105.5872h63.0528v100.8128h-62.8224c-7.552 38.1696-21.7728 72.96-43.4432 104.8064 15.1936 14.912 29.9776 29.4784 44.2368 43.4944l-72.2048 71.9232c-13.5936-13.9904-28.0704-28.9024-42.9824-44.2112a279.936 279.936 0 0 1-105.3568 43.8784v63.0784h-100.5056v-63.04c-38.5664-7.552-73.344-21.8624-105.472-43.776z" fill="#B3B3B3" p-id="6159"></path><path d="M484.4032 725.76c-15.0784 15.1808-29.7472 29.9264-44.096 44.3904l-70.7712-70.9632 44.8128-42.9312c-22.1696-33.2288-37.0048-67.776-44.2496-106.1248H307.072v-100.8h62.8224c7.5136-38.1696 21.696-72.9856 43.6608-105.1648l-44.7232-42.8288 72.4608-72.2688 42.8416 44.2624c32.4992-21.9904 67.1744-36.5312 105.472-43.8528v-63.104h100.4928v63.04c38.6304 7.3728 73.2672 22.016 105.5232 43.6864l44.2624-44.4416 70.2976 70.528-44.224 44.0064c21.9008 32.6656 36.6208 67.2512 43.9424 105.5872h63.0528v100.8128h-62.8224c-7.552 38.1568-21.7728 72.9472-43.4432 104.8064l44.2368 43.4944-72.2048 71.9232-42.9824-44.2112a280.1536 280.1536 0 0 1-105.3568 43.8912v63.0656h-100.5056V769.536c-38.5664-7.5648-73.344-21.8752-105.472-43.776z" fill="#E5E7E6" p-id="6160"></path><path d="M640.5504 567.8976c-10.0736-0.0128-20.4928-2.5472-31.8592-7.7824-22.4-10.3552-32.0384-27.5328-38.5152-42.9952a86.272 86.272 0 0 0-7.6032-14.0928c-7.8464-11.8784-20.9792-31.7312-13.4016-54.848 2.5216-7.7056 3.3792-15.7696 4.2624-24.3328 0.3584-3.4688 0.7424-6.9376 1.2032-10.4064 4.5312-33.6512 33.8176-60.6336 69.6064-64.2048 2.9824-0.2816 5.9904-0.4608 8.5504-0.6016l2.4448-0.1536c27.84 0.3968 49.4464 8.3968 67.072 24.448 16.7424 15.2448 25.152 34.624 25.0112 57.6l-0.0256 1.5232c-0.0128 0.7808-0.0768 1.5616-0.0128 2.3168 9.7792 18.7264 8.5888 38.528-3.6096 60.5312l-3.264 5.8624c-4.9664 8.8832-9.664 17.2928-13.7984 26.0224-8.5888 18.048-22.6944 26.9696-35.392 33.3312-10.4704 5.2352-20.5056 7.7824-30.6688 7.7824z m-4.6976-194.432l-1.6512 0.1408c-2.2656 0.128-4.9024 0.2688-7.5136 0.5248-24.3712 2.432-44.2624 20.3776-47.2576 42.6496-0.4352 3.2256-0.7808 6.4512-1.1136 9.664-0.9856 9.4848-2.0096 19.3024-5.376 29.5296-3.2 9.7792 1.2288 19.2384 10.4832 33.2672 3.9424 5.952 7.2448 12.0704 9.8304 18.24 6.7072 16.0384 13.9776 24.4224 25.92 29.9392 8.1152 3.7504 14.8992 5.4784 21.376 5.4912 6.272 0 12.48-1.6384 19.4944-5.1328 12.9024-6.464 19.6224-12.5312 23.9744-21.696a475.52 475.52 0 0 1 14.5536-27.4688l3.2256-5.7984c8.256-14.8736 9.152-26.048 3.0336-37.3632-2.7008-4.9792-2.6112-10.2912-2.5344-13.7984 0.1152-17.0496-5.4016-29.7856-16.8192-40.2176-13.0944-11.9424-28.8768-17.6384-49.6256-17.9712z" fill="#BC8119" p-id="6161"></path><path d="M730.0992 654.0032l-225.3056-0.0128c-8.6528 0-17.4464-0.9728-23.1296-8.0896-5.6448-7.0912-4.5312-16.128-2.9184-23.2064a208.8448 208.8448 0 0 1 13.12-39.5648c5.888-13.0944 16.9728-23.0144 32.9088-29.4784 12.544-5.0944 25.0368-10.3424 37.6064-15.616l23.1552-9.6896 5.9264 6.0416c34.1504 34.8544 62.5664 35.2896 97.2032 1.2288l5.7344-5.632 23.872 9.088c12.7488 4.8 25.4592 9.6 38.0032 14.8224 18.0096 7.5008 31.232 22.1056 38.2208 42.1888 3.4688 9.9328 5.6064 20.4416 7.3344 29.504 1.6128 8.4864 0.2688 15.3856-4.0064 20.544-4.288 5.184-10.9312 7.8208-19.776 7.8336l-47.9488 0.0384z m-227.1104-25.0496l1.8176 0.0256 272.256-0.0256c-1.5744-8.1536-3.3664-16.7296-6.1312-24.6528-4.6464-13.3888-12.8-22.5664-24.2432-27.328a1135.744 1135.744 0 0 0-37.1968-14.5152l-9.152-3.4688c-40.4096 36.1984-80.7552 35.776-120.5632-1.1136l-7.68 3.2128c-12.6464 5.312-25.2416 10.5856-37.888 15.7312-9.9328 4.0064-16.3072 9.4336-19.5072 16.576a184.3456 184.3456 0 0 0-11.712 35.5584z" fill="#BC8119" p-id="6162"></path><path d="M640.5504 542.8864c-10.0736-0.0128-20.4928-2.5472-31.8592-7.7824-22.4-10.3424-32.0384-27.5328-38.5152-42.9824a85.8624 85.8624 0 0 0-7.6032-14.1056c-7.8464-11.8656-20.9792-31.7312-13.4016-54.848 2.5216-7.6928 3.3792-15.7696 4.2624-24.3328 0.3584-3.4688 0.7424-6.9248 1.2032-10.4064 4.5312-33.6384 33.8176-60.6336 69.6064-64.192 2.9824-0.2944 5.9904-0.4608 8.5504-0.6144l2.4448-0.1536c27.84 0.4096 49.4464 8.3968 67.072 24.448 16.7424 15.2448 25.152 34.624 25.0112 57.6128l-0.0256 1.5232c-0.0128 0.768-0.0768 1.5616-0.0128 2.304 9.7792 18.7264 8.5888 38.528-3.6096 60.544l-3.264 5.8624c-4.9664 8.8832-9.664 17.2928-13.7984 26.0096-8.5888 18.048-22.6944 26.9696-35.392 33.3312-10.4704 5.2352-20.5056 7.7824-30.6688 7.7824z m-4.6976-194.4192l-1.6512 0.1408a162.304 162.304 0 0 0-7.5136 0.5248c-24.3712 2.4192-44.2624 20.3648-47.2576 42.6496-0.4352 3.2256-0.7808 6.4512-1.1136 9.664-0.9856 9.472-2.0096 19.2896-5.376 29.5296-3.2 9.7664 1.2288 19.2256 10.4832 33.2544 3.9424 5.952 7.2448 12.0832 9.8304 18.24 6.7072 16.0384 13.9776 24.4352 25.92 29.9392 8.1152 3.7504 14.8992 5.4912 21.376 5.504 6.272 0 12.48-1.6384 19.4944-5.1456 12.9024-6.4512 19.6224-12.5312 23.9744-21.6832a475.52 475.52 0 0 1 14.5536-27.4688l3.2256-5.7984c8.256-14.8736 9.152-26.0608 3.0336-37.376-2.7008-4.9792-2.6112-10.2912-2.5344-13.7856 0.1152-17.0624-5.4016-29.7984-16.8192-40.2176-13.0944-11.9552-28.8768-17.6512-49.6256-17.9712z" fill="#F4C258" p-id="6163"></path><path d="M730.0992 628.992l-225.3056-0.0128c-8.6528 0-17.4464-0.9728-23.1296-8.0896-5.6448-7.0912-4.5312-16.128-2.9184-23.2064a208.6784 208.6784 0 0 1 13.12-39.5776c5.888-13.0944 16.9728-23.0144 32.9088-29.4784 12.544-5.0944 25.0368-10.3424 37.6064-15.616l23.1552-9.6896 5.9264 6.0544c34.1504 34.8544 62.5664 35.2768 97.2032 1.2288l5.7344-5.6448 23.872 9.088c12.7488 4.8128 25.4592 9.6128 38.0032 14.8352 18.0096 7.5008 31.232 22.0928 38.2208 42.176 3.4688 9.9328 5.6064 20.4416 7.3344 29.504 1.6128 8.4864 0.2688 15.3984-4.0064 20.544-4.288 5.184-10.9312 7.8208-19.776 7.8336l-47.9488 0.0512z m-227.1104-25.0368l1.8176 0.0256 272.256-0.0256c-1.5744-8.1664-3.3664-16.7424-6.1312-24.6656-4.6464-13.376-12.8-22.5664-24.2432-27.328a1165.184 1165.184 0 0 0-37.1968-14.5024l-9.152-3.4816c-40.4096 36.2112-80.7552 35.7632-120.5632-1.1136l-7.68 3.2128c-12.6464 5.312-25.2416 10.5856-37.888 15.7312-9.9328 4.0192-16.3072 9.4464-19.5072 16.576a184.6528 184.6528 0 0 0-11.712 35.5712z" fill="#F4C258" p-id="6164"></path></svg>