<?xml version="1.0" standalone="no"?><!DOCTYPE svg PUBLIC "-//W3C//DTD SVG 1.1//EN" "http://www.w3.org/Graphics/SVG/1.1/DTD/svg11.dtd"><svg t="1703571102721" class="icon" viewBox="0 0 1280 1024" version="1.1" xmlns="http://www.w3.org/2000/svg" p-id="2265" xmlns:xlink="http://www.w3.org/1999/xlink" width="250" height="200"><path d="M1017.8304 873.024c0 14.6304-12.9024 26.4448-28.8128 26.4448h-703.104c-15.936 0-28.8384-11.8272-28.8384-26.4448V227.9936c0-14.6176 12.9024-26.4448 28.8384-26.4448h703.104c15.9104 0 28.8128 11.8272 28.8128 26.4448v645.0304z" fill="#B3B3B3" p-id="2266"></path><path d="M1017.8304 836.3008c0 14.5024-12.9024 26.2784-28.8128 26.2784h-703.104c-15.936 0-28.8384-11.776-28.8384-26.2784V195.4688c0-14.5024 12.9024-26.2528 28.8384-26.2528h703.104c15.9104 0 28.8128 11.7504 28.8128 26.2528v640.832z" fill="#E5E7E6" p-id="2267"></path><path d="M292.224 317.8624h685.9776V723.2H292.224z" fill="#FFFFFF" p-id="2268"></path><path d="M292.224 216.1024h685.9776V288H292.224z" fill="#29ABE2" p-id="2269"></path><path d="M292.224 753.024h685.9776v71.8976H292.224z" fill="#FFFFFF" p-id="2270"></path></svg>