<?xml version="1.0" standalone="no"?><!DOCTYPE svg PUBLIC "-//W3C//DTD SVG 1.1//EN" "http://www.w3.org/Graphics/SVG/1.1/DTD/svg11.dtd"><svg t="1739260077700" class="icon" viewBox="0 0 1280 1024" version="1.1" xmlns="http://www.w3.org/2000/svg" p-id="8240" xmlns:xlink="http://www.w3.org/1999/xlink" width="250" height="200"><path d="M740.992 482.4064l-4.3648-4.352-87.1168-69.7088c-8.7168-8.704-17.4336-8.704-26.1504 0l-87.1168 69.7088s0 4.352-4.3648 4.352v4.3392c0 4.352-4.3648 8.7168-4.3648 8.7168V774.272c0 8.7296 4.3648 13.0816 8.7296 17.4336l87.1168 69.7088h26.1504l87.1168-69.7088c4.3648-4.352 8.7296-8.7168 8.7296-17.4336V495.4496c-0.0128-4.352-0.0128-8.7168-4.3648-13.0432z m-104.5504-30.5024l52.288 43.5456-52.288 43.5712-52.288-43.5712 52.288-43.5456z m-65.3696 87.1168l43.5712 34.8544v222.1696l-43.5712-34.8288V539.0208z m87.1552 257.024V573.8752l43.5712-34.8544V761.216l-43.5712 34.8288zM619.008 351.7056c4.352 4.3392 8.7168 4.3392 13.0688 4.3392 4.3648 0 8.7296 0 13.0688-4.3392l87.1168-69.7216c4.3648-4.352 8.7296-8.704 8.7296-17.4208 0-8.7296-4.3648-13.0816-8.7296-17.4336l-87.1168-69.696c-8.7168-8.7168-17.4208-8.7168-26.1376-4.352l-87.1296 69.696c-8.7296 8.704-8.7296 13.0688-8.7296 21.7856s4.3648 13.0688 8.7296 17.4208l87.1296 69.7216z m13.0688-135.0784l52.288 43.5712-52.288 43.5712-52.2752-43.5712 52.2752-43.5712z" fill="#CCCCCC" p-id="8241"></path><path d="M575.4368 364.7744l-87.1168-69.7088c-8.7296-8.7168-17.4336-8.7168-26.1504-4.352L375.04 364.7872s0 4.352-4.352 4.352v4.3648c0 4.352-4.3648 8.704-4.3648 8.704v278.8224c0 8.7168 4.3648 13.0688 8.7168 17.4208l87.1296 69.6832c4.352 4.3648 8.7168 4.3648 13.0688 4.3648h8.7296c8.704-4.3648 13.0688-13.0688 13.0688-21.7728V460.608l78.4128-65.3312c4.3648-4.3648 8.7168-8.7168 8.7168-17.4208-0.0128-8.7296-4.3648-8.7296-8.7296-13.0816z m-121.984 318.0288l-43.5456-34.8544V425.7536l43.5456 34.8672v222.1824z m21.7856-261.4144l-52.2624-43.5456 52.2624-43.584 52.288 43.584-52.288 43.5456z" fill="#23B08D" p-id="8242"></path><path d="M906.5344 377.856c0-4.352 0-8.7296-4.3648-8.7296v-4.352s0-4.352-4.352-4.352l-87.1168-69.7088c-8.7296-8.7168-17.4336-8.7168-26.1632 0l-87.1168 69.7088c-4.3648 8.7168-8.7168 13.0816-8.7168 17.4336 0 4.352 4.352 13.0688 8.7168 17.4208l78.4128 65.3312v270.1184c0 8.704 4.3648 17.408 13.0688 21.7728h8.7296c4.352 0 8.7168 0 13.0688-4.3648l87.1168-69.6832c4.352-4.352 8.7168-8.7168 8.7168-17.4208V377.856z" fill="#29ABE2" p-id="8243"></path><path d="M797.632 334.272l52.2624 43.584-52.2624 43.5328-52.288-43.5328zM819.4304 682.8032V460.608l43.5456-34.8544v222.1952z" fill="#FFFFFF" p-id="8244"></path></svg>