<?xml version="1.0" standalone="no"?><!DOCTYPE svg PUBLIC "-//W3C//DTD SVG 1.1//EN" "http://www.w3.org/Graphics/SVG/1.1/DTD/svg11.dtd"><svg t="1703576812194" class="icon" viewBox="0 0 1280 1024" version="1.1" xmlns="http://www.w3.org/2000/svg" p-id="9216" xmlns:xlink="http://www.w3.org/1999/xlink" width="250" height="200"><path d="M996.5952 836.5952c0 13.7728-12.16 24.9216-27.136 24.9216H306.9696c-15.0144 0-27.1744-11.1488-27.1744-24.9216v-607.744c0-13.7728 12.16-24.9216 27.1744-24.9216h662.4896c14.976 0 27.136 11.1488 27.136 24.9216v607.744z" fill="#B3B3B3" p-id="9217"></path><path d="M996.5952 801.9968c0 13.6448-12.16 24.7296-27.136 24.7296H306.9696c-15.0144 0-27.1744-11.072-27.1744-24.7296V198.1824c0-13.6576 12.16-24.7424 27.1744-24.7424h662.4896c14.976 0 27.136 11.072 27.136 24.7424v603.8144z" fill="#E5E7E6" p-id="9218"></path><path d="M312.9216 229.7088h646.336v537.8816H312.9216z" fill="#FFFFFF" p-id="9219"></path><path d="M588.7104 355.52c0 7.488-5.7216 13.5552-12.8 13.5552H361.1776c-7.0656 0-12.8-6.0672-12.8-13.5552v-49.7024c0-7.488 5.7344-13.5552 12.8-13.5552h214.7328c7.0784 0 12.8 6.0672 12.8 13.5552v49.7024z" fill="#147F61" p-id="9220"></path><path d="M924.3904 571.5584c0 8.3456-6.4896 15.1168-14.5152 15.1168H631.6928c-8.0128 0-14.5152-6.7584-14.5152-15.1168V294.592c0-8.3456 6.5024-15.1168 14.5152-15.1168h278.1824c8.0256 0 14.5152 6.7584 14.5152 15.1168v276.9664z" fill="#CCCCCC" p-id="9221"></path><path d="M588.7104 342.72c0 7.488-5.7216 13.5552-12.8 13.5552H361.1776c-7.0656 0-12.8-6.0672-12.8-13.5552v-49.7024c0-7.488 5.7344-13.5552 12.8-13.5552h214.7328c7.0784 0 12.8 6.0672 12.8 13.5552v49.7024z" fill="#23B08D" p-id="9222"></path><path d="M659.8528 317.8752h208v38.4h-208zM659.8528 404.2752h208v38.4h-208zM659.8528 489.0752h208v38.4h-208z" fill="#E5E7E6" p-id="9223"></path></svg>