<?xml version="1.0" standalone="no"?><!DOCTYPE svg PUBLIC "-//W3C//DTD SVG 1.1//EN" "http://www.w3.org/Graphics/SVG/1.1/DTD/svg11.dtd"><svg t="1720774822188" class="icon" viewBox="0 0 1280 1024" version="1.1" xmlns="http://www.w3.org/2000/svg" p-id="6875" xmlns:xlink="http://www.w3.org/1999/xlink" width="250" height="200"><path d="M466.4192 336.2816h356.6464a14.656 14.656 0 1 0 0-29.312H466.4192a14.656 14.656 0 0 0 0 29.312zM466.4192 398.3616h356.6464a14.6688 14.6688 0 0 0 0-29.3248H466.4192a14.656 14.656 0 0 0 0 29.3248zM466.4192 460.4416h356.6464a14.656 14.656 0 0 0 0-29.3248H466.4192a14.6688 14.6688 0 0 0 0 29.3248z" fill="#B3B3B3" p-id="6876"></path><path d="M644.7488 716.7744a112.4992 112.4992 0 0 0-112.384 112.3712 14.656 14.656 0 0 0 29.3248 0 83.1232 83.1232 0 0 1 83.0592-83.0592 83.136 83.136 0 0 1 83.0592 83.0592 14.656 14.656 0 0 0 29.3248 0 112.4864 112.4864 0 0 0-112.384-112.3712z" fill="#73CAD8" p-id="6877"></path><path d="M937.9072 775.8592h-48.9088a246.656 246.656 0 0 0-33.6512-81.7664l34.432-34.5728a14.6304 14.6304 0 0 0 0-20.6848l-54.6048-54.6688a14.6816 14.6816 0 0 0-20.7232 0l-34.5088 34.5344a246.1312 246.1312 0 0 0-81.8048-33.7408v-48.9856c0-8.1024-6.5664-14.656-14.6688-14.656H606.08c-8.0896 0-14.6432 6.5536-14.6432 14.656v48.9344a246.656 246.656 0 0 0-81.792 33.664l-34.496-34.4448a14.6688 14.6688 0 0 0-20.6976 0l-54.656 54.656a14.6304 14.6304 0 0 0-0.0256 20.6592v0.0256l34.4704 34.5088a246.4128 246.4128 0 0 0-33.6768 81.856h-49.0112c-8.0768 0-14.6432 6.5536-14.6432 14.6688v38.656a14.656 14.656 0 1 0 29.312 0v-23.9616h46.4256c7.2064 0 13.312-5.1968 14.4768-12.2624a218.112 218.112 0 0 1 37.952-92.0576 14.7328 14.7328 0 0 0-1.4976-18.9312l-32.7168-32.6656 33.9328-33.9712 32.7168 32.6784c5.0944 5.056 13.056 5.696 18.88 1.5232a218.368 218.368 0 0 1 92.0704-37.8752c7.04-1.2288 12.2112-7.3216 12.224-14.5024v-46.5024h48.0512v46.464c0 7.2064 5.184 13.2992 12.2112 14.4896a218.5984 218.5984 0 0 1 92.1344 37.9648c5.824 4.1088 13.7728 3.456 18.8416-1.6128l32.7296-32.5888 33.8816 33.8816-32.6656 32.6912a14.72 14.72 0 0 0-1.5104 18.9184 218.7904 218.7904 0 0 1 37.9648 92.0576c1.1648 7.104 7.3088 12.2496 14.464 12.2496h46.3616v24.0128a14.656 14.656 0 1 0 29.3248 0V790.528c0.064-8.0256-6.4-14.592-14.4128-14.6688h-0.1536z" fill="#92DDEA" p-id="6878"></path><path d="M919.6416 228.16h-549.76a33.0496 33.0496 0 0 0-32.9472 33.0624v437.824a14.656 14.656 0 1 0 29.312 0V261.2224c0-2.0224 1.6768-3.7376 3.6352-3.7376h549.7472c1.8944 0 3.6096 1.7664 3.6096 3.7376v437.824a14.656 14.656 0 1 0 29.3248 0V261.2224a33.024 33.024 0 0 0-32.9216-33.0624z" fill="#B3B3B3" p-id="6879"></path><path d="M466.4192 311.9232h356.6464a14.656 14.656 0 0 0 0-29.3248H466.4192a14.6688 14.6688 0 0 0 0 29.3248zM466.4192 374.0032h356.6464a14.6688 14.6688 0 0 0 0-29.3376H466.4192a14.6688 14.6688 0 0 0 0 29.3376zM466.4192 436.0704h356.6464a14.6688 14.6688 0 0 0 0-29.3248H466.4192c-8.0768 0-14.656 6.5792-14.656 14.656a14.6816 14.6816 0 0 0 14.656 14.6688z" fill="#E5E7E6" p-id="6880"></path><path d="M644.7488 692.4032a112.512 112.512 0 0 0-112.384 112.384 14.6688 14.6688 0 0 0 29.3248 0 83.1232 83.1232 0 0 1 83.0592-83.0592 83.136 83.136 0 0 1 83.0592 83.0592 14.6688 14.6688 0 0 0 29.3248 0 112.512 112.512 0 0 0-112.384-112.384z" fill="#29ABE2" p-id="6881"></path><path d="M937.9072 751.488h-48.9088a246.7072 246.7072 0 0 0-33.6512-81.7536l34.432-34.5728a14.6432 14.6432 0 0 0 0-20.6976l-54.6048-54.6688a14.7072 14.7072 0 0 0-20.7232 0l-34.5088 34.5472a246.4256 246.4256 0 0 0-81.8048-33.7536V511.616c0-8.0896-6.5664-14.6432-14.6688-14.6432H606.08c-8.0896 0-14.6432 6.5536-14.6432 14.6432v48.9344a246.656 246.656 0 0 0-81.792 33.664l-34.496-34.432a14.6688 14.6688 0 0 0-20.6976 0l-54.656 54.656a14.6304 14.6304 0 0 0-0.0256 20.6592v0.0256l34.4704 34.496a246.4128 246.4128 0 0 0-33.6768 81.856h-49.0112c-8.0768 0-14.6432 6.5664-14.6432 14.6688v38.6688a14.656 14.656 0 0 0 29.312 0v-23.9616h46.4256c7.2064 0 13.312-5.1968 14.4768-12.2752a218.112 218.112 0 0 1 37.952-92.0448 14.7328 14.7328 0 0 0-1.4976-18.9312l-32.7168-32.6656 33.9328-33.9584 32.7168 32.6656c5.0944 5.0688 13.056 5.696 18.88 1.5232a218.5344 218.5344 0 0 1 92.0704-37.8752c7.04-1.2288 12.2112-7.3216 12.224-14.5024v-46.4896h48.0512v46.4512c0 7.2064 5.184 13.2992 12.2112 14.5024a218.5728 218.5728 0 0 1 92.1344 37.952c5.824 4.1088 13.7728 3.456 18.8416-1.6l32.7296-32.6016 33.8816 33.8816-32.6656 32.6912a14.7328 14.7328 0 0 0-1.5104 18.9312 218.7392 218.7392 0 0 1 37.9648 92.0448c1.1648 7.1168 7.3088 12.2624 14.464 12.2624h46.3616v24.0128a14.656 14.656 0 0 0 29.3248 0v-38.6304c0.064-8.0384-6.4-14.592-14.4128-14.6688-0.064-0.0384-0.1152-0.0384-0.1536-0.0384z" fill="#29ABE2" p-id="6882"></path><path d="M919.6416 203.8016h-549.76a33.024 33.024 0 0 0-32.9472 33.0496V674.688a14.656 14.656 0 1 0 29.312 0V236.8512c0-2.0096 1.6768-3.7376 3.6352-3.7376h549.7472c1.8944 0 3.6096 1.7664 3.6096 3.7376V674.688a14.656 14.656 0 1 0 29.3248 0V236.8512a33.024 33.024 0 0 0-32.9216-33.0496z" fill="#E5E7E6" p-id="6883"></path></svg>