<?xml version="1.0" standalone="no"?><!DOCTYPE svg PUBLIC "-//W3C//DTD SVG 1.1//EN" "http://www.w3.org/Graphics/SVG/1.1/DTD/svg11.dtd"><svg t="1703571064767" class="icon" viewBox="0 0 1280 1024" version="1.1" xmlns="http://www.w3.org/2000/svg" p-id="2123" xmlns:xlink="http://www.w3.org/1999/xlink" width="250" height="200"><path d="M1053.376 880.0768c0 15.872-14.0288 28.7232-31.2704 28.7232H259.072c-17.2928 0-31.2832-12.8512-31.2832-28.7232V179.0848c0-15.872 14.0032-28.736 31.2832-28.736h763.0208c17.2544 0 31.2704 12.864 31.2704 28.736v700.992z" fill="#B3B3B3" p-id="2124"></path><path d="M1053.376 840.1536c0 15.744-14.0416 28.544-31.3088 28.544H257.9584c-17.3184 0-31.3344-12.8-31.3344-28.544V143.744c0-15.7568 14.0288-28.544 31.3344-28.544h764.096c17.28 0 31.3088 12.7872 31.3088 28.544v696.4096z" fill="#E5E7E6" p-id="2125"></path><path d="M285.7088 172.1984h707.7632v633.4464H285.7088z" fill="#FFFFFF" p-id="2126"></path><path d="M350.5024 371.6096h261.6192V750.336H350.5024zM350.5024 221.8368h580.224v104.6656h-580.224zM669.0944 371.6096h261.6192V750.336H669.0944z" fill="#CCD0D3" p-id="2127"></path></svg>