<?xml version="1.0" standalone="no"?><!DOCTYPE svg PUBLIC "-//W3C//DTD SVG 1.1//EN" "http://www.w3.org/Graphics/SVG/1.1/DTD/svg11.dtd"><svg t="1703754352060" class="icon" viewBox="0 0 1280 1024" version="1.1" xmlns="http://www.w3.org/2000/svg" p-id="5161" xmlns:xlink="http://www.w3.org/1999/xlink" width="250" height="200"><path d="M562.2272 502.3488v-82.368l111.0528 111.0016-110.7584 110.7712v-82.56h-113.3312v-56.8448h113.0368z" fill="#1A80A3" p-id="5162"></path><path d="M988.5696 542.6944v305.1008c0 22.8736-12.5312 35.4048-35.4048 35.4048H341.632c-22.528 0-35.2128-12.5696-35.2128-34.9056V236.7616c0-23.3472 12.3648-35.712 35.7376-35.712h611.52c22.3104 0 34.8928 12.6848 34.8928 35.2256v306.4192zM363.8144 258.304v567.5136h368.4608V258.304H363.8144z m567.4624 0.1152H761.6v567.3856h169.6768V258.4192z" fill="#B3B3B3" p-id="5163"></path><path d="M988.5696 508.0448v305.1136c0 22.8608-12.5312 35.392-35.4048 35.392H341.632c-22.528 0-35.2128-12.5696-35.2128-34.9056V202.1248c0-23.36 12.3648-35.7248 35.7376-35.7248h611.52c22.3104 0 34.8928 12.6848 34.8928 35.2256v306.4192zM363.8144 223.6544V791.168h368.4608V223.6544H363.8144z m567.4624 0.1152H761.6v567.3856h169.6768V223.7696z" fill="#E5E7E6" p-id="5164"></path><path d="M562.2272 502.3488v-82.368l111.0528 111.0016-110.7584 110.7712v-82.56h-113.3312v-56.8448h113.0368z" fill="#29ABE2" p-id="5165"></path></svg>