<?xml version="1.0" standalone="no"?><!DOCTYPE svg PUBLIC "-//W3C//DTD SVG 1.1//EN" "http://www.w3.org/Graphics/SVG/1.1/DTD/svg11.dtd"><svg t="1734490561628" class="icon" viewBox="0 0 1280 1024" version="1.1" xmlns="http://www.w3.org/2000/svg" p-id="6221" xmlns:xlink="http://www.w3.org/1999/xlink" width="250" height="200"><path d="M1053.376 880.0768c0 15.872-14.0416 28.7232-31.3344 28.7232H257.9328c-17.2928 0-31.3088-12.8512-31.3088-28.7232V179.0848c0-15.872 14.0288-28.736 31.3088-28.736h764.096c17.3056 0 31.3344 12.864 31.3344 28.736v700.992z" fill="#B3B3B3" p-id="6222"></path><path d="M1053.376 840.1536c0 15.7568-14.0416 28.5312-31.3344 28.5312H257.9328c-17.2928 0-31.3088-12.7744-31.3088-28.5312V143.744c0-15.7568 14.0288-28.544 31.3088-28.544h764.096c17.3056 0 31.3344 12.7872 31.3344 28.544v696.4096z" fill="#E5E7E6" p-id="6223"></path><path d="M1053.376 198.9248V143.744c0-15.7568-14.0416-28.544-31.3344-28.544H257.9328c-17.2928 0-31.3088 12.7872-31.3088 28.544v55.1808h826.752z" fill="#CCD0D3" p-id="6224"></path><path d="M639.9872 296.2048c58.5344 0 106.1632 47.616 106.1632 106.1504 0 58.5344-47.6288 106.1504-106.1632 106.1504-58.5088 0-106.1376-47.616-106.1376-106.1504 0-58.5344 47.6288-106.1504 106.1376-106.1504z m-59.8528 174.5152a7.6288 7.6288 0 0 1 4.8128-7.1808c4.928-1.9456 17.1392-7.6416 32.2944-10.3424v-3.2256c-15.168-14.8864-24.1152-42.7648-24.1152-63.8336 0-30.0544 15.68-47.296 43.0208-47.296 28.096 0 45.5808 17.6896 45.5808 47.296 0 10.1888-3.84 43.5968-19.008 61.952v4.0448c7.6032 1.8688 23.2832 5.9264 33.6128 9.5872 3.5584 1.2672 5.0688 4.9152 4.416 8.5248a90.496 90.496 0 0 0 30.4-67.8784c0-50.176-40.9088-90.9824-91.0592-90.9824-50.176 0-91.0336 40.8064-91.0336 90.9824 0 27.2384 12.0448 51.6608 31.0784 68.352zM226.624 198.9248h826.752v20.928h-826.752zM626.9824 762.2912a23.552 23.552 0 0 1-23.5648 23.552h-100.5568a23.552 23.552 0 1 1 0-47.0912h100.5568a23.552 23.552 0 0 1 23.5648 23.5392z" fill="#B3B3B3" p-id="6225"></path><path d="M800.6784 762.2912a23.552 23.552 0 0 1-23.552 23.552h-100.544a23.552 23.552 0 0 1 0-47.0912h100.544a23.552 23.552 0 0 1 23.552 23.5392z" fill="#29ABE2" p-id="6226"></path><path d="M800.6784 587.4304c0 10.8544-11.7248 19.648-26.1632 19.648H505.4848c-14.4384 0-26.1632-8.8064-26.1632-19.648v-2.5984c0-10.8288 11.7248-19.6224 26.1632-19.6224h269.0304c14.4384 0 26.1632 8.8064 26.1632 19.6224v2.5984zM800.6784 668.544c0 10.8288-11.7248 19.6224-26.1632 19.6224H505.4848c-14.4384 0-26.1632-8.8064-26.1632-19.6224v-2.624c0-10.8416 11.7248-19.6224 26.1632-19.6224h269.0304c14.4384 0 26.1632 8.7936 26.1632 19.6224v2.624z" fill="#B3B3B3" p-id="6227"></path></svg>