<?xml version="1.0" standalone="no"?><!DOCTYPE svg PUBLIC "-//W3C//DTD SVG 1.1//EN" "http://www.w3.org/Graphics/SVG/1.1/DTD/svg11.dtd"><svg t="1703574058368" class="icon" viewBox="0 0 1280 1024" version="1.1" xmlns="http://www.w3.org/2000/svg" p-id="4428" xmlns:xlink="http://www.w3.org/1999/xlink" width="250" height="200"><path d="M992 825.4208c0 13.5296-11.9552 24.4736-26.6624 24.4736H314.688c-14.7456 0-26.688-10.944-26.688-24.4736V228.5184c0-13.5296 11.9424-24.4736 26.688-24.4736h650.6496c14.7072 0 26.6624 10.944 26.6624 24.4736v596.9024z" fill="#B3B3B3" p-id="4429"></path><path d="M992 791.4496c0 13.4016-11.9552 24.2944-26.6624 24.2944H314.688c-14.7456 0-26.688-10.9056-26.688-24.2944V198.4c0-13.4144 11.9424-24.2944 26.688-24.2944h650.6496c14.7072 0 26.6624 10.88 26.6624 24.2944v593.0496z" fill="#E5E7E6" p-id="4430"></path><path d="M682.7904 224.6272h274.6112v533.3248H682.7904zM355.648 224.6272h263.0656v65.7664H355.648zM355.648 402.8544h263.0656v65.7664H355.648zM355.648 498.2016h263.0656v173.2224H355.648z" fill="#FFFFFF" p-id="4431"></path><path d="M511.7952 344.2432a21.376 21.376 0 0 1-21.376 21.376h-113.408a21.376 21.376 0 0 1 0-42.752h113.408c11.8016 0 21.376 9.5616 21.376 21.376zM511.7952 720.7808a21.376 21.376 0 0 1-21.376 21.376h-113.408a21.376 21.376 0 0 1 0-42.752h113.408c11.8016 0 21.376 9.5744 21.376 21.376z" fill="#29ABE2" p-id="4432"></path></svg>