<?xml version="1.0" standalone="no"?><!DOCTYPE svg PUBLIC "-//W3C//DTD SVG 1.1//EN" "http://www.w3.org/Graphics/SVG/1.1/DTD/svg11.dtd"><svg t="1711938646437" class="icon" viewBox="0 0 1280 1024" version="1.1" xmlns="http://www.w3.org/2000/svg" p-id="12605" xmlns:xlink="http://www.w3.org/1999/xlink" width="250" height="200"><path d="M1006.9632 838.7456c0 14.1056-12.4544 25.4976-27.7888 25.4976H300.8512c-15.3728 0-27.8144-11.4048-27.8144-25.4976V216.4608c0-14.1056 12.4416-25.5104 27.8144-25.5104h678.3232c15.3344 0 27.7888 11.4176 27.7888 25.5104v622.2848z" fill="#B3B3B3" p-id="12606"></path><path d="M1006.9632 803.3024c0 14.0288-12.4544 25.344-27.7888 25.344H300.8512c-15.3728 0-27.8144-11.328-27.8144-25.344V185.088c0-14.0032 12.4416-25.3312 27.8144-25.3312h678.3232c15.3344 0 27.7888 11.3408 27.7888 25.3312v618.2144z" fill="#E5E7E6" p-id="12607"></path><path d="M557.4912 262.976h185.3952v86.4384H557.4912z" fill="#FFFFFF" p-id="12608"></path><path d="M401.7664 431.744h499.9296v54.8736H401.7664z" fill="#B3B3B3" p-id="12609"></path><path d="M401.7664 419.4176h499.9296v54.8608H401.7664z" fill="#CCCCCC" p-id="12610"></path><path d="M401.7664 527.4496h499.9296v54.8736H401.7664z" fill="#B3B3B3" p-id="12611"></path><path d="M401.7664 515.1104h499.9296v54.8608H401.7664z" fill="#CCCCCC" p-id="12612"></path><path d="M401.7664 650.944h499.9296v54.848H401.7664z" fill="#966312" p-id="12613"></path><path d="M401.7664 638.6048h499.9296v54.848H401.7664z" fill="#F4C258" p-id="12614"></path></svg>