<?xml version="1.0" standalone="no"?><!DOCTYPE svg PUBLIC "-//W3C//DTD SVG 1.1//EN" "http://www.w3.org/Graphics/SVG/1.1/DTD/svg11.dtd"><svg t="1710941733295" class="icon" viewBox="0 0 1280 1024" version="1.1" xmlns="http://www.w3.org/2000/svg" p-id="4872" xmlns:xlink="http://www.w3.org/1999/xlink" width="250" height="200"><path d="M1193.1776 751.0912c0 6.3488-4.288 11.4688-9.5616 11.4688H535.2064c-5.2864 0-9.5744-5.1072-9.5744-11.4688V321.152c0-6.336 4.2752-11.4688 9.5744-11.4688H1183.616c5.2736 0 9.5616 5.1328 9.5616 11.4688v429.9392z" fill="#B3B3B3" p-id="4873"></path><path d="M1193.1776 728.4352c0 6.336-4.288 11.456-9.5616 11.456H535.2064c-5.2864 0-9.5744-5.1072-9.5744-11.456V298.5216c0-6.336 4.2752-11.4688 9.5744-11.4688H1183.616c5.2736 0 9.5616 5.1328 9.5616 11.4688v429.9136z" fill="#E5E7E6" p-id="4874"></path><path d="M478.8352 751.3728c0 6.1696-4.3264 11.1744-9.6768 11.1744H96.4992c-5.3504 0-9.664-5.0048-9.664-11.1744V320.8704c0-6.1824 4.3136-11.1872 9.664-11.1872h372.672c5.3504 0 9.6768 5.0048 9.6768 11.1872v430.5024z" fill="#D84909" p-id="4875"></path><path d="M478.8352 728.7296c0 6.1696-4.3264 11.1616-9.6768 11.1616H96.4992c-5.3504 0-9.664-4.992-9.664-11.1616V298.2272c0-6.1824 4.3136-11.1744 9.664-11.1744h372.672c5.3504 0 9.6768 4.992 9.6768 11.1744v430.5024z" fill="#F47808" p-id="4876"></path><path d="M1096.64 441.8944a10.432 10.432 0 0 1-10.432 10.432H616.5248a10.432 10.432 0 0 1-10.432-10.432v-51.7376c0-5.7728 4.672-10.432 10.432-10.432H1086.208c5.76 0 10.432 4.6592 10.432 10.432v51.7376zM1096.64 537.92a10.4192 10.4192 0 0 1-10.432 10.4192H616.5248a10.4064 10.4064 0 0 1-10.432-10.4192v-51.7376c0-5.7728 4.672-10.432 10.432-10.432H1086.208c5.76 0 10.432 4.6592 10.432 10.432v51.7376zM1096.64 646.8352c0 5.76-6.464 10.432-14.4384 10.432H865.792c-7.9872 0-14.4256-4.672-14.4256-10.432v-49.8688c0-5.7728 6.4384-10.432 14.4256-10.432h216.4096c7.9744 0 14.4384 4.6592 14.4384 10.432v49.8688zM783.5136 646.8352c0 5.76-4.672 10.432-10.432 10.432H616.5248a10.432 10.432 0 0 1-10.432-10.432v-49.8688c0-5.7728 4.672-10.432 10.432-10.432h156.5568c5.76 0 10.432 4.6592 10.432 10.432v49.8688z" fill="#CCCCCC" p-id="4877"></path></svg>