<?xml version="1.0" standalone="no"?><!DOCTYPE svg PUBLIC "-//W3C//DTD SVG 1.1//EN" "http://www.w3.org/Graphics/SVG/1.1/DTD/svg11.dtd"><svg t="1703835831074" class="icon" viewBox="0 0 1280 1024" version="1.1" xmlns="http://www.w3.org/2000/svg" p-id="2405" xmlns:xlink="http://www.w3.org/1999/xlink" width="250" height="200"><path d="M909.7472 286.5024H623.0016a95.5648 95.5648 0 0 0-95.5776-95.5648h-143.36a95.552 95.552 0 0 0-95.5648 95.5648v477.888a95.5776 95.5776 0 0 0 95.5648 95.5776h525.6704a95.5904 95.5904 0 0 0 95.5648-95.5776V382.08a95.5648 95.5648 0 0 0-95.552-95.5776zM384.0768 238.72h143.36a47.7824 47.7824 0 0 1 47.7824 47.7824H336.2944a47.7824 47.7824 0 0 1 47.7824-47.7824z m573.4528 525.6704a47.7952 47.7952 0 0 1-47.7696 47.7824H384.0768a47.7824 47.7824 0 0 1-47.7824-47.7824V334.2976h573.4528a47.7952 47.7952 0 0 1 47.7696 47.7824v382.3104z" fill="#B3B3B3" p-id="2406"></path><path d="M909.7472 259.712H623.0016a95.552 95.552 0 0 0-95.5776-95.5648h-143.36a95.552 95.552 0 0 0-95.5648 95.5648v477.8752a95.5776 95.5776 0 0 0 95.5648 95.5904h525.6704a95.5904 95.5904 0 0 0 95.5648-95.5904V355.2768a95.552 95.552 0 0 0-95.552-95.5648z m-525.6704-47.7824h143.36a47.7824 47.7824 0 0 1 47.7824 47.7824H336.2944a47.7824 47.7824 0 0 1 47.7824-47.7824z m573.4528 525.6576a47.7824 47.7824 0 0 1-47.7696 47.7824H384.0768a47.7824 47.7824 0 0 1-47.7824-47.7824V307.4944h573.4528a47.7952 47.7952 0 0 1 47.7696 47.7824v382.3104z" fill="#E5E7E6" p-id="2407"></path><path d="M596.3264 517.76c0 11.264-9.1392 20.416-20.416 20.416h-58.9824c-11.264 0-20.4032-9.152-20.4032-20.416v-58.9696c0-11.264 9.1392-20.416 20.4032-20.416h58.9824c11.264 0 20.416 9.1392 20.416 20.416v58.9696zM797.2992 517.76c0 11.264-9.152 20.416-20.416 20.416h-58.9824c-11.264 0-20.4032-9.152-20.4032-20.416v-58.9696c0-11.264 9.1392-20.416 20.4032-20.416h58.9824c11.264 0 20.416 9.1392 20.416 20.416v58.9696zM596.3264 685.888c0 11.264-9.1392 20.416-20.416 20.416h-58.9824c-11.264 0-20.4032-9.152-20.4032-20.416v-58.9696c0-11.2768 9.1392-20.4032 20.4032-20.4032h58.9824c11.264 0 20.416 9.1264 20.416 20.4032v58.9696zM797.2992 685.888c0 11.264-9.152 20.416-20.416 20.416h-58.9824c-11.264 0-20.4032-9.152-20.4032-20.416v-58.9696c0-11.2768 9.1392-20.4032 20.4032-20.4032h58.9824c11.264 0 20.416 9.1264 20.416 20.4032v58.9696z" fill="#B3B3B3" p-id="2408"></path><path d="M596.3264 504.3584c0 11.264-9.1392 20.416-20.416 20.416h-58.9824c-11.264 0-20.4032-9.152-20.4032-20.416v-58.9696c0-11.264 9.1392-20.4032 20.4032-20.4032h58.9824c11.264 0 20.416 9.1392 20.416 20.4032v58.9696zM797.2992 504.3584c0 11.264-9.152 20.416-20.416 20.416h-58.9824c-11.264 0-20.4032-9.152-20.4032-20.416v-58.9696c0-11.264 9.1392-20.4032 20.4032-20.4032h58.9824c11.264 0 20.416 9.1392 20.416 20.4032v58.9696zM596.3264 672.4864c0 11.264-9.1392 20.416-20.416 20.416h-58.9824c-11.264 0-20.4032-9.152-20.4032-20.416v-58.9568c0-11.2896 9.1392-20.416 20.4032-20.416h58.9824c11.264 0 20.416 9.1264 20.416 20.416v58.9568zM797.2992 672.4864c0 11.264-9.152 20.416-20.416 20.416h-58.9824c-11.264 0-20.4032-9.152-20.4032-20.416v-58.9568c0-11.2896 9.1392-20.416 20.4032-20.416h58.9824c11.264 0 20.416 9.1264 20.416 20.416v58.9568z" fill="#E5E7E6" p-id="2409"></path></svg>