<?xml version="1.0" standalone="no"?><!DOCTYPE svg PUBLIC "-//W3C//DTD SVG 1.1//EN" "http://www.w3.org/Graphics/SVG/1.1/DTD/svg11.dtd"><svg t="1703665683208" class="icon" viewBox="0 0 1280 1024" version="1.1" xmlns="http://www.w3.org/2000/svg" p-id="4726" xmlns:xlink="http://www.w3.org/1999/xlink" width="250" height="200"><path d="M851.2256 623.4496c5.2352 7.744 12.6848 13.3248 19.2256 19.8144 40.5248 40.3712 80.9216 80.832 121.6512 121.024 4.5312 4.5056 4.416 6.6304-0.064 11.0208-30.7328 30.3104-61.184 60.9408-91.6608 91.4944-3.2128 3.2256-5.2992 5.6448-9.9072 1.0112-45.5936-45.9904-91.4688-91.6992-137.2288-137.536-0.6016-0.5888-0.9984-1.3696-1.4464-2.048 0.4736-2.8288 2.7264-4.0448 4.8512-5.44 38.3232-25.1264 69.4656-57.1136 92.3264-96.9856a4.9664 4.9664 0 0 1 2.2528-2.3552z" fill="#B3B3B3" p-id="4727"></path><path d="M851.2256 623.4496c-3.2896 12.544-11.7888 22.0672-19.3024 31.9488-22.2336 29.1584-48.5888 53.888-80.1408 72.832-12.3776-12.3392-24.7552-24.704-37.0944-37.056 23.2064-15.104 45.4784-31.3088 64.6144-51.6096a345.216 345.216 0 0 0 33.0496-41.088c1.9968-2.9312 3.1232-6.6432 6.6816-8.3584l32.192 33.3312z" fill="#808080" p-id="4728"></path><path d="M855.5264 394.4448c-11.5456-67.7248-43.0848-124.736-95.1936-170.112-47.168-41.088-102.1312-64.3072-164.0704-69.5936-54.976-4.7232-107.8016 5.248-156.8 31.296-58.2528 30.9632-101.5168 76.3136-129.1776 136.5504-23.0784 50.304-30.4 103.04-22.912 157.3248 9.7408 70.5152 41.6384 129.8176 95.424 177.1136 49.792 43.7888 108.0832 66.7904 173.7728 71.04 35.7376 2.3168 70.8096-2.9056 104.9856-14.1312 18.432-6.0544 35.6736-14.592 53.1328-22.7456 3.1744-0.32 5.7472-1.9456 8.4096-3.52 26.5856-15.6416 48.9344-36.3136 69.0816-59.2896 10.2528-11.6864 20.4032-23.744 26.8544-38.2464 2.0736-8.6016 7.7952-15.4112 11.4688-23.2192 25.7024-54.9504 35.2512-112.5376 25.024-172.4672z m-284.928 226.1248c-98.88-0.3072-179.7632-82.9312-177.7152-179.9296-1.4848-97.7664 80.9728-179.392 180.032-179.072 95.9744 0.3072 179.3152 79.9232 178.5856 180.2752a179.3536 179.3536 0 0 1-180.9024 178.7264z" fill="#CCD0D3" p-id="4729"></path></svg>