<?xml version="1.0" standalone="no"?><!DOCTYPE svg PUBLIC "-//W3C//DTD SVG 1.1//EN" "http://www.w3.org/Graphics/SVG/1.1/DTD/svg11.dtd"><svg t="1703835844618" class="icon" viewBox="0 0 1280 1024" version="1.1" xmlns="http://www.w3.org/2000/svg" p-id="2693" xmlns:xlink="http://www.w3.org/1999/xlink" width="250" height="200"><path d="M1040.0384 868.1984c0 15.3472-13.5808 27.8016-30.2976 27.8016h-739.456c-16.7552 0-30.3232-12.4544-30.3232-27.8016V189.824c0-15.36 13.5808-27.8144 30.3232-27.8144h739.456c16.7296 0 30.2976 12.4544 30.2976 27.8144v678.3744z" fill="#B3B3B3" p-id="2694"></path><path d="M1040.0384 829.5552c0 15.2448-13.5808 27.6224-30.2976 27.6224h-739.456c-16.7552 0-30.3232-12.3776-30.3232-27.6224V155.6096c0-15.2448 13.5808-27.6096 30.3232-27.6096h739.456c16.7296 0 30.2976 12.3648 30.2976 27.6096v673.9456z" fill="#E5E7E6" p-id="2695"></path><path d="M344.9216 462.9504a37.5296 37.5296 0 0 0-37.5168 37.5296v56.2816a37.5296 37.5296 0 0 0 37.5168 37.5168h182.0928v-131.328H344.9216zM935.0912 462.9504a37.5296 37.5296 0 0 1 37.5296 37.5296v56.2816a37.5296 37.5296 0 0 1-37.5296 37.5168H752.9856v-131.328h182.1056z" fill="#B3B3B3" p-id="2696"></path><path d="M527.0144 462.9504h227.4816v131.328H527.0144z" fill="#067867" p-id="2697"></path><path d="M344.9216 444.1856a37.5296 37.5296 0 0 0-37.5168 37.5296v56.2816a37.5296 37.5296 0 0 0 37.5168 37.5296h182.0928V444.1856H344.9216zM935.0912 444.1856a37.5296 37.5296 0 0 1 37.5296 37.5296v56.2816a37.5296 37.5296 0 0 1-37.5296 37.5296H752.9856V444.1856h182.1056z" fill="#CCCCCC" p-id="2698"></path><path d="M527.0144 444.1856h227.4816v131.3408H527.0144z" fill="#23B08D" p-id="2699"></path></svg>