<?xml version="1.0" standalone="no"?><!DOCTYPE svg PUBLIC "-//W3C//DTD SVG 1.1//EN" "http://www.w3.org/Graphics/SVG/1.1/DTD/svg11.dtd"><svg t="1739517270286" class="icon" viewBox="0 0 1024 1024" version="1.1" xmlns="http://www.w3.org/2000/svg" p-id="16087" xmlns:xlink="http://www.w3.org/1999/xlink" width="200" height="200"><path d="M208 272h32v672h-32z m96 0h32v672h-32z m96 0h32v672h-32z m96 0h32v672h-32z m96 0h32v672h-32z" fill="#34303D" p-id="16088"></path><path d="M160 832h512v32H160z m0-96h512v32H160z m0-96h512v32H160z m0-96h512v32H160z m0-96h512v32H160z m0-96h512v32H160z" fill="#34303D" p-id="16089"></path><path d="M736 16H128c53.008 0 96 42.992 96 96s-42.992 96-96 96h608c53.008 0 96-42.992 96-96s-42.992-96-96-96z" fill="#57DCF2" p-id="16090"></path><path d="M48 832H16V112C16 50.24 66.24 0 128 0s112 50.24 112 112-50.24 112-112 112v-32c44.112 0 80-35.888 80-80s-35.888-80-80-80-80 35.888-80 80v720z" fill="#34303D" p-id="16091"></path><path d="M736 224H96v-32h640c44.112 0 80-35.888 80-80s-35.888-80-80-80H128V0h608c61.744 0 112 50.24 112 112s-50.256 112-112 112z" fill="#34303D" p-id="16092"></path><path d="M448 96h32v32h-32z m64 0h32v32h-32z m64 0h32v32h-32z m176 928H80V96h64v32h-32v864h608V208h32z" fill="#34303D" p-id="16093"></path><path d="M896 112h96v832h-96z" fill="#FF5F5C" p-id="16094"></path><path d="M960 1024h-32c-12.816 0-24.88-5.008-33.936-14.064S880 988.816 880 976V112c0-2.48 0.576-4.944 1.68-7.152l48-96C935.12-2 952.864-2 958.304 8.848l48 96A15.84 15.84 0 0 1 1008 112v864c0 12.816-5.008 24.88-14.064 33.936S972.816 1024 960 1024z m-48-908.224V976c0 4.272 1.664 8.288 4.688 11.312S923.728 992 928 992h32c4.272 0 8.288-1.664 11.312-4.688S976 980.272 976 976V115.776l-32-64-32 64z" fill="#34303D" p-id="16095"></path><path d="M896 96h96v32h-96z m0 768h96v32h-96z" fill="#34303D" p-id="16096"></path></svg>