<?xml version="1.0" standalone="no"?><!DOCTYPE svg PUBLIC "-//W3C//DTD SVG 1.1//EN" "http://www.w3.org/Graphics/SVG/1.1/DTD/svg11.dtd"><svg t="1703816792998" class="icon" viewBox="0 0 1280 1024" version="1.1" xmlns="http://www.w3.org/2000/svg" p-id="5724" xmlns:xlink="http://www.w3.org/1999/xlink" width="250" height="200"><path d="M1053.3248 219.1616c0-21.6192-19.8528-39.1808-44.3392-39.1808H272.96c-24.4992 0-44.352 17.5488-44.352 39.1808v650.4576c0 21.6448 19.8528 39.1808 44.352 39.1808h736.0256c24.4864 0 44.3392-3.6224 44.3392-39.1808V219.1616z" fill="#B3B3B3" p-id="5725"></path><path d="M1053.3248 155.6096C1053.3248 133.2992 1033.472 115.2 1008.9856 115.2H272.96c-24.4992 0-44.352 18.0992-44.352 40.4096v670.8352c0 22.2976 19.8528 40.3712 44.352 40.3712h736.0256c24.4864 0 44.3392-18.0736 44.3392-40.3712V155.6096z" fill="#E5E7E6" p-id="5726"></path><path d="M1053.3248 154.9824c0-21.632-19.904-39.1808-44.4416-39.1808H271.1168c-24.5504 0-44.4416 17.536-44.4416 39.1808" fill="#CCD0D3" p-id="5727"></path><path d="M226.6752 154.3936h826.6496v48.896H226.6752z" fill="#CCD0D3" p-id="5728"></path><path d="M226.6752 311.0656h825.5232v20.8768H226.6752zM226.6752 450.7392h825.5232v20.8896H226.6752zM226.6752 590.4256h825.5232v20.8768H226.6752zM226.6752 723.6736h825.5232v20.8768H226.6752z" fill="#B3B3B3" p-id="5729"></path><path d="M367.1424 202.8672h20.8896v665.664h-20.8896zM540.7744 202.8672h20.8896v665.664h-20.8896zM709.1712 202.8672h20.9024v665.664h-20.9024zM877.6064 202.8672h20.864v665.664h-20.864z" fill="#B3B3B3" p-id="5730"></path></svg>