<?xml version="1.0" standalone="no"?><!DOCTYPE svg PUBLIC "-//W3C//DTD SVG 1.1//EN" "http://www.w3.org/Graphics/SVG/1.1/DTD/svg11.dtd"><svg t="1739518869620" class="icon" viewBox="0 0 1024 1024" version="1.1" xmlns="http://www.w3.org/2000/svg" p-id="16257" xmlns:xlink="http://www.w3.org/1999/xlink" width="200" height="200"><path d="M0.001 511.999002a510.989068 510.989068 0 1 0 1021.978136 0A510.989068 510.989068 0 1 0 0.001 511.999002z" fill="#4FBF9F" p-id="16258"></path><path d="M384.840394 892.048862l-51.098009 114.973763h-91.020106l223.558154-507.796379h91.020106l223.558154 507.796379h-91.020106l-51.099006-114.972765h-253.898189z m218.767622-79.842198l-92.617948-209.186558-92.616949 209.186558h185.233899z" fill="#FDBF5E" p-id="16259"></path><path d="M780.856697 1022.990066h-91.020106c-6.387376 0-12.774752-3.19269-14.371595-9.581064l-46.308475-105.391701h-234.736062l-46.308475 105.391701c-3.193688 6.386378-7.98422 9.581064-14.371595 9.581064h-91.020106c-4.789534 0-11.17691-3.19269-12.774751-7.98422-3.193688-4.790532-3.193688-9.582062-1.596844-14.371595l223.558154-507.796378c3.194686-6.387376 7.98422-9.58306 14.371595-9.58306h91.020106c6.387376 0 12.774752 3.194686 14.371595 9.582061l221.96131 504.602691c1.596844 3.193688 3.193688 6.387376 3.193688 9.581063 0 9.582062-7.98422 15.969438-15.968439 15.969438zM699.418653 991.053187h55.890536L546.121633 515.193688h-70.261134L266.673941 991.053187h55.891534l46.308475-105.391701c3.193688-6.387376 7.98422-9.581064 14.371596-9.581064h253.898189c6.387376 0 12.774752 3.193688 14.371595 9.581064L699.418653 991.053187z m-95.810637-162.879082H418.372121c-4.790532 0-11.177908-3.194686-12.774752-7.984219-3.194686-4.790532-3.194686-9.582062-1.596844-14.371596l92.616949-209.186558c3.193688-6.387376 7.98422-9.582062 14.371596-9.582062s12.774752 3.193688 14.371596 9.581064l92.616949 209.186558c1.596844 4.790532 1.596844 11.177908-1.596844 14.371596-3.19269 6.389372-7.982224 7.98422-12.774752 7.984219z m-159.684396-31.936879h135.731736l-68.665288-153.29702-67.06545 153.29702z" fill="#193651" p-id="16260"></path><path d="M63.874758 16.978374h894.231618v600.414325h-894.232616z" fill="#CFD0D1" p-id="16261"></path><path d="M958.107374 633.360141H63.874758c-9.58306 0-15.970436-6.387376-15.970435-15.969438V16.978374C47.907317 7.39731 54.293695 1.009934 63.874758 1.009934h894.232616c9.581064 0 15.96844 6.387376 15.968439 15.96844v600.414325c0 9.580066-6.387376 15.967442-15.966443 15.967442z m-878.264176-31.936879h862.295736V32.946813H79.843198v568.476449z" fill="#193651" p-id="16262"></path><path d="M128.020978 81.123595h766.485099v472.665811h-766.485099zM15.970438 617.391701h990.043253v75.051666h-990.043253z" fill="#FFFFFF" p-id="16263"></path><path d="M1006.012693 708.411807H15.96944c-9.581064 0-15.96844-6.387376-15.96844-15.96844v-75.052664c0-9.582062 6.387376-15.96844 15.96844-15.968439h990.044251c9.582062 0 15.969438 6.386378 15.969437 15.968439v75.051666c-0.001996 9.58306-6.389372 15.970436-15.971433 15.970436zM31.937879 676.474928h958.106374v-43.114787H31.937879v43.114787zM279.448692 365.090356l-17.564285 38.324255h-30.339037l73.454822-167.668615h30.340035l73.454822 167.668615h-30.340035l-17.563288-38.324255H279.448692z m73.453824-27.146347l-30.340035-68.66429-30.338039 68.66429h60.678074z m175.653834 63.873758H455.101528V234.148154h65.470602c11.177908 0 20.758971 1.596844 28.743191 4.790531s14.372594 6.387376 19.162127 11.175912c7.98422 7.98422 11.177908 19.162127 11.177908 28.744189 0 12.774752-4.790532 22.356813-12.774751 28.74419-3.194686 1.596844-4.790532 3.194686-6.387376 4.790531-1.596844 0-3.194686 1.596844-6.387376 3.193688 11.177908 1.596844 19.162127 6.387376 25.549503 14.371596 6.387376 6.387376 9.581064 15.970436 9.581064 27.147345s-4.789534 22.355815-12.774752 30.340035c-9.581064 9.581064-25.549503 14.371596-47.905318 14.371596zM482.247875 304.410286H518.975286c20.758971 0 30.339037-6.387376 30.339037-20.758972 0-7.98422-3.194686-14.371596-7.98422-17.565283-4.790532-3.193688-12.774752-4.789534-22.357811-4.789534h-36.726413V304.410286z m0 71.857978H526.959506c11.177908 0 19.162127-1.596844 23.952659-4.790532s7.98422-9.581064 7.98422-19.162128c0-14.371596-11.177908-22.355815-35.131565-22.355815h-41.517943V376.268264h0.000998z m239.525595 0c9.581064 0 17.565284-1.596844 25.549504-4.790532 6.387376-3.193688 14.371596-7.98422 22.355815-15.96844l17.565283 19.162128c-17.565284 19.162127-39.921099 30.339037-65.470602 30.339037-25.549503 0-46.308475-7.98422-63.873758-23.952659-15.96844-15.96844-25.549503-36.726413-25.549503-62.276915s7.985218-46.308475 25.549503-62.27891c17.565284-15.96844 38.324255-25.549503 65.470602-25.549503 25.549503 0 47.906317 9.58306 65.470602 28.744189l-17.564285 19.162127c-7.98422-7.98422-15.96844-12.774752-22.355815-15.968439-6.387376-3.195684-15.970436-4.790532-25.549504-4.790532-17.565284 0-31.936879 4.790532-43.114787 15.968439-11.17691 11.177908-17.564285 25.549503-17.564285 41.518941 0 17.565284 6.387376 31.936879 17.565283 43.114787 11.17691 12.77575 25.549503 17.565284 41.515947 17.565284zM175.653835 128.75745h31.935881v31.93688h-31.936879z m638.736585 0h31.936879v31.93688h-31.936879z m-638.737583 344.918295h31.936879v31.935881h-31.936879z m638.737583 0h31.936879v31.935881h-31.936879z" fill="#193651" p-id="16264"></path></svg>