<?xml version="1.0" standalone="no"?><!DOCTYPE svg PUBLIC "-//W3C//DTD SVG 1.1//EN" "http://www.w3.org/Graphics/SVG/1.1/DTD/svg11.dtd"><svg t="1710233548680" class="icon" viewBox="0 0 1280 1024" version="1.1" xmlns="http://www.w3.org/2000/svg" p-id="7497" xmlns:xlink="http://www.w3.org/1999/xlink" width="250" height="200"><path d="M250.9312 523.4432m-62.5408 0a62.5408 62.5408 0 1 0 125.0816 0 62.5408 62.5408 0 1 0-125.0816 0Z" fill="#B3B3B3" opacity=".6" p-id="7498"></path><path d="M250.9056 523.4432m-41.6896 0a41.6896 41.6896 0 1 0 83.3792 0 41.6896 41.6896 0 1 0-83.3792 0Z" fill="#B3B3B3" p-id="7499"></path><path d="M631.9104 523.4432a62.5536 62.5536 0 1 1-125.0944-0.0128 62.5536 62.5536 0 0 1 125.0944 0.0128z" fill="#29ABE2" opacity=".6" p-id="7500"></path><path d="M569.3312 523.4432m-41.6896 0a41.6896 41.6896 0 1 0 83.3792 0 41.6896 41.6896 0 1 0-83.3792 0Z" fill="#29ABE2" p-id="7501"></path><path d="M949.2608 523.4432m-112.2688 0a112.2688 112.2688 0 1 0 224.5376 0 112.2688 112.2688 0 1 0-224.5376 0Z" fill="#F7931E" opacity=".6" p-id="7502"></path><path d="M949.248 523.4432m-74.8672 0a74.8672 74.8672 0 1 0 149.7344 0 74.8672 74.8672 0 1 0-149.7344 0Z" fill="#F7931E" p-id="7503"></path></svg>