<?xml version="1.0" standalone="no"?><!DOCTYPE svg PUBLIC "-//W3C//DTD SVG 1.1//EN" "http://www.w3.org/Graphics/SVG/1.1/DTD/svg11.dtd"><svg t="1742641559929" class="icon" viewBox="0 0 1280 1024" version="1.1" xmlns="http://www.w3.org/2000/svg" p-id="6176" xmlns:xlink="http://www.w3.org/1999/xlink" width="250" height="200"><path d="M982.6304 834.432c0 13.312-11.7504 24.0896-26.2528 24.0896H315.52c-14.528 0-26.2784-10.7776-26.2784-24.0896V246.5024c0-13.312 11.7376-24.1024 26.2784-24.1024h640.8576c14.5024 0 26.2528 10.7904 26.2528 24.1024V834.432z" fill="#B3B3B3" p-id="6177"></path><path d="M982.6304 800.9472c0 13.2352-11.7504 23.936-26.2528 23.936H315.52c-14.528 0-26.2784-10.7008-26.2784-23.936V216.8576c0-13.2224 11.7376-23.936 26.2784-23.936h640.8576c14.5024 0 26.2528 10.7136 26.2528 23.936v584.0896z" fill="#E5E7E6" p-id="6178"></path><path d="M537.216 375.8464h285.184c12.0832 0 21.952 9.856 21.952 21.9392s-9.8304 21.9392-21.952 21.9392H537.216a21.952 21.952 0 0 1 0-43.8784zM449.472 375.8464c12.096 0 21.9392 9.856 21.9392 21.9392s-9.8176 21.9392-21.9392 21.9392-21.9392-9.856-21.9392-21.9392 9.8432-21.9392 21.9392-21.9392z" fill="#B3B3B3" p-id="6179"></path><path d="M537.216 363.2h285.184c12.0832 0 21.952 9.8432 21.952 21.9392 0 12.0832-9.8304 21.9392-21.952 21.9392H537.216a21.952 21.952 0 0 1 0-43.8784zM449.472 363.2c12.096 0 21.9392 9.8432 21.9392 21.9392a21.952 21.952 0 1 1-21.9392-21.9392z" fill="#CCCCCC" p-id="6180"></path><path d="M537.216 499.1616h285.184c12.0832 0 21.952 9.8432 21.952 21.9392 0 12.0832-9.8304 21.9392-21.952 21.9392H537.216a21.952 21.952 0 0 1 0-43.8784zM449.472 499.1616c12.096 0 21.9392 9.8432 21.9392 21.9392 0 12.0832-9.8176 21.9392-21.9392 21.9392s-21.9392-9.856-21.9392-21.9392c0-12.096 9.8432-21.9392 21.9392-21.9392z" fill="#1B7A9B" p-id="6181"></path><path d="M537.216 486.5152h285.184c12.0832 0 21.952 9.8432 21.952 21.9264 0 12.0832-9.8304 21.9136-21.952 21.9136H537.216a21.9392 21.9392 0 0 1-21.9264-21.9136 21.9392 21.9392 0 0 1 21.9264-21.9264zM449.472 486.5152c12.096 0 21.9392 9.8432 21.9392 21.9264a21.9392 21.9392 0 1 1-21.9392-21.9264z" fill="#29ABE2" p-id="6182"></path><path d="M537.216 622.4768h285.184c12.0832 0 21.952 9.856 21.952 21.9264 0 12.096-9.8304 21.952-21.952 21.952H537.216a21.9392 21.9392 0 0 1 0-43.8784zM449.472 622.4768c12.096 0 21.9392 9.856 21.9392 21.9264 0 12.096-9.8176 21.952-21.9392 21.952s-21.9392-9.856-21.9392-21.952c0-12.0832 9.8432-21.9264 21.9392-21.9264z" fill="#B3B3B3" p-id="6183"></path><path d="M537.216 609.8176h285.184c12.0832 0 21.952 9.8432 21.952 21.952 0 12.0704-9.8304 21.9136-21.952 21.9136H537.216a21.9392 21.9392 0 0 1 0-43.8656zM449.472 609.8176a21.9392 21.9392 0 1 1 0 43.84 21.9392 21.9392 0 0 1 0-43.84z" fill="#CCCCCC" p-id="6184"></path></svg>