<?xml version="1.0" standalone="no"?><!DOCTYPE svg PUBLIC "-//W3C//DTD SVG 1.1//EN" "http://www.w3.org/Graphics/SVG/1.1/DTD/svg11.dtd"><svg t="1716975023111" class="icon" viewBox="0 0 1280 1024" version="1.1" xmlns="http://www.w3.org/2000/svg" p-id="6520" xmlns:xlink="http://www.w3.org/1999/xlink" width="250" height="200"><path d="M352.5376 792.9088h113.8816v75.9296h-113.8816v-75.9296z m0-512.4864h113.8816v75.9296h-113.8816v-75.9296z m227.776-94.912h113.8688v75.9296h-113.8688v-75.9296z m0 683.328h113.8688V299.4048h-113.8688v569.4336z m18.9696-531.4816h75.9296v37.9648h-75.9296v-37.9648z m208.8064 37.9648v379.6096h113.8688V375.3216h-113.8688z m94.8992 75.9296h-75.9296v-37.9648h75.9296v37.9648zM352.5376 754.9312h113.8816V394.304h-113.8816v360.6272z m18.9696-322.6624h75.9296v37.952h-75.9296v-37.952z m436.5824 360.64h113.8688v75.9296h-113.8688v-75.9296z" fill="#B3B3B3" p-id="6521"></path><path d="M352.5376 767.3088h113.8816v75.9296h-113.8816zM352.5376 254.8224h113.8816v75.9296h-113.8816z" fill="#E5E7E6" p-id="6522"></path><path d="M580.3136 159.9104h113.8688v75.9296h-113.8688zM580.3136 273.8048h113.8688v569.4336h-113.8688z" fill="#CCCCCC" p-id="6523"></path><path d="M599.2832 311.7568h75.9296v37.9648h-75.9296z" fill="#FFFFFF" p-id="6524"></path><path d="M808.0896 349.7216h113.8688v379.6096h-113.8688z" fill="#E5E7E6" p-id="6525"></path><path d="M827.0592 387.6864h75.9296v37.9648h-75.9296z" fill="#FFFFFF" p-id="6526"></path><path d="M352.5376 368.704h113.8816V729.344h-113.8816z" fill="#E5E7E6" p-id="6527"></path><path d="M371.5072 406.6688h75.9296v37.952h-75.9296z" fill="#FFFFFF" p-id="6528"></path><path d="M808.0896 767.3088h113.8688v75.9296h-113.8688z" fill="#E5E7E6" p-id="6529"></path></svg>